<?xml version="1.0" encoding="UTF-8"?>
<!DOCTYPE svg PUBLIC "-//W3C//DTD SVG 1.1//EN" "http://www.w3.org/Graphics/SVG/1.1/DTD/svg11.dtd">
<!-- Creator: CorelDRAW -->
<svg xmlns="http://www.w3.org/2000/svg" xml:space="preserve" width="2048px" height="2048px" style="shape-rendering:geometricPrecision; text-rendering:geometricPrecision; image-rendering:optimizeQuality; fill-rule:evenodd; clip-rule:evenodd"
viewBox="0 0 2048 2048"
 xmlns:xlink="http://www.w3.org/1999/xlink">
 <defs>
  <style type="text/css">
   <![CDATA[
    .fil1 {fill:none}
    .fil0 {fill:#424242}
    .fil2 {fill:#FFFFFE;fill-rule:nonzero}
   ]]>
  </style>
 </defs>

 <g id="Layer_x0020_1">
  <metadata id="CorelCorpID_0Corel-Layer"/>
  <g id="_572955696">
   <rect id="_572955864" class="fil1" width="204" height="204"/>
   <rect id="_572955744" class="fil1" x="255.999" y="255.999" width="204" height="1536"/>
  </g>
  <path class="fil2" d="M608 255.998l448.272 0c17.6728,0 32.0008,14.328 32.0008,32.0008 0,0.414567 -0.0106299,0.825591 -0.0259843,1.23662 3.86811,90.9898 43.2095,172.813 104.561,231.98 61.6146,59.4213 145.498,95.9705 237.983,95.9705 7.80001,0 -0.484252,0.155906 4.23662,0.0944883 0.951969,-0.011811 2.39882,-0.0437008 4.21063,-0.0862205l-0.00236221 -0.115748c17.6681,-0.421654 32.3351,13.5579 32.7567,31.226 0.00708662,0.256299 0.00826772,0.511418 0.00826772,0.765355l0.0011811 0 0 0.0602363 0 1078.87c0,17.6728 -14.328,32.0008 -32.0008,32.0008l-832.001 0c-17.6728,0 -32.0008,-14.328 -32.0008,-32.0008l0 -1440c0,-17.6728 14.328,-32.0008 32.0008,-32.0008zm418.668 64.0016l-386.667 0 0 1376 767.999 0 0 -1015.45c-100.541,-5.563 -191.378,-47.6941 -259.444,-113.336 -66.4158,-64.0524 -111.095,-150.51 -121.889,-247.216z"/>
  <path class="fil2" d="M736.001 383.998l192 0c17.6728,0 32.0008,14.328 32.0008,32.0008l0 192c0,17.6728 -14.328,32.0008 -32.0008,32.0008l-192 0c-17.6728,0 -32.0008,-14.328 -32.0008,-32.0008l0 -192c0,-17.6728 14.328,-32.0008 32.0008,-32.0008zm159.999 64.0016l-127.999 0 0 127.999 127.999 0 0 -127.999z"/>
  <path class="fil2" d="M736.001 703.999l192 0c17.6728,0 32.0008,14.328 32.0008,32.0008l0 192c0,17.6728 -14.328,32.0008 -32.0008,32.0008l-192 0c-17.6728,0 -32.0008,-14.328 -32.0008,-32.0008l0 -192c0,-17.6728 14.328,-32.0008 32.0008,-32.0008zm159.999 64.0016l-127.999 0 0 127.999 127.999 0 0 -127.999z"/>
  <path class="fil2" d="M1120 703.999l192 0c17.6728,0 32.0008,14.328 32.0008,32.0008l0 192c0,17.6728 -14.328,32.0008 -32.0008,32.0008l-192 0c-17.6728,0 -32.0008,-14.328 -32.0008,-32.0008l0 -192c0,-17.6728 14.328,-32.0008 32.0008,-32.0008zm159.999 64.0016l-127.999 0 0 127.999 127.999 0 0 -127.999z"/>
  <path class="fil2" d="M736.001 1024l192 0c17.6728,0 32.0008,14.328 32.0008,32.0008l0 192c0,17.6728 -14.328,32.0008 -32.0008,32.0008l-192 0c-17.6728,0 -32.0008,-14.328 -32.0008,-32.0008l0 -192c0,-17.6728 14.328,-32.0008 32.0008,-32.0008zm159.999 64.0016l-127.999 0 0 127.999 127.999 0 0 -127.999z"/>
  <path class="fil2" d="M1120 1024l192 0c17.6728,0 32.0008,14.328 32.0008,32.0008l0 192c0,17.6728 -14.328,32.0008 -32.0008,32.0008l-192 0c-17.6728,0 -32.0008,-14.328 -32.0008,-32.0008l0 -192c0,-17.6728 14.328,-32.0008 32.0008,-32.0008zm159.999 64.0016l-127.999 0 0 127.999 127.999 0 0 -127.999z"/>
  <path class="fil2" d="M736.001 1344l192 0c17.6728,0 32.0008,14.328 32.0008,32.0008l0 192c0,17.6728 -14.328,32.0008 -32.0008,32.0008l-192 0c-17.6728,0 -32.0008,-14.328 -32.0008,-32.0008l0 -192c0,-17.6728 14.328,-32.0008 32.0008,-32.0008zm159.999 64.0016l-127.999 0 0 127.999 127.999 0 0 -127.999z"/>
  <path class="fil2" d="M1120 1344l192 0c17.6728,0 32.0008,14.328 32.0008,32.0008l0 192c0,17.6728 -14.328,32.0008 -32.0008,32.0008l-192 0c-17.6728,0 -32.0008,-14.328 -32.0008,-32.0008l0 -192c0,-17.6728 14.328,-32.0008 32.0008,-32.0008zm159.999 64.0016l-127.999 0 0 127.999 127.999 0 0 -127.999z"/>
 </g>
</svg>
