<svg xmlns="http://www.w3.org/2000/svg" width="735.683" height="249.419" viewBox="0 0 735.683 249.419">
  <g id="组_2" data-name="组 2" transform="translate(-19.018 -53.456)">
    <g id="组_1" data-name="组 1">
      <path id="路径_1" data-name="路径 1" d="M66.011,145.787c-.866-12.4-6.821-21.575-18.473-21.575-9.427,0-18.221,6.822-19.84,21.575ZM19.018,150.87c0-23.184,14.882-33.846,28.646-33.846,15.243,0,26.655,11.658,26.655,33.969v1.613H27.578c.12,16.112,9.294,25.172,20.579,25.172,9.793,0,15.376-4.22,20.333-11.908l5.33,4.22c-5.7,9.171-13.758,14.877-26.156,14.877-15.256,0-28.646-11.779-28.646-34.1Z" fill="#211c1d"/>
      <path id="路径_2" data-name="路径 2" d="M97.762,149.754,75.944,118.263h9.547l16.982,25.169,16.988-25.169h9.294l-21.939,31.492L130.246,183.6h-9.42l-18.72-27.4-18.6,27.4H74.332l23.431-33.847Z" fill="#211c1d"/>
      <path id="路径_3" data-name="路径 3" d="M182.576,150.993c0-18.1-8.927-26.654-19.84-26.654-8.06,0-14.136,4.213-20.332,10.789v31.735c6.449,6.815,12.771,10.665,20.332,10.665,11.526,0,19.84-8.061,19.84-26.535Zm-48.726-32.73H142.4v9.3c5.21-5.58,12.025-10.539,21.825-10.539,15,0,26.9,11.032,26.9,33.846s-12.025,33.85-27.647,33.85c-8.434,0-15.256-4.1-21.079-10.043V208.4H133.85V118.263Z" fill="#211c1d"/>
      <path id="路径_4" data-name="路径 4" d="M243.214,145.787c-.867-12.4-6.822-21.575-18.474-21.575-9.427,0-18.221,6.822-19.84,21.575ZM196.22,150.87c0-23.184,14.882-33.846,28.646-33.846,15.249,0,26.655,11.658,26.655,33.969v1.613H204.78c.12,16.112,9.294,25.172,20.579,25.172,9.8,0,15.376-4.22,20.333-11.908l5.336,4.22c-5.7,9.171-13.764,14.877-26.162,14.877-15.249,0-28.646-11.779-28.646-34.1Z" fill="#211c1d"/>
      <path id="路径_5" data-name="路径 5" d="M260.208,118.263h8.554v12.894h.247c5.083-8.058,13.017-14.133,25.908-14.133h1.493l-.867,7.931s-2.358-.12-2.6-.12c-10.666,0-19.094,5.946-24.177,16.236V183.6h-8.554V118.263Z" fill="#211c1d"/>
      <path id="路径_6" data-name="路径 6" d="M311.172,168.351v-42.77h-11.4v-7.318h11.4V94.832h8.554v23.431h16.988v7.318H319.726v41.035c0,6.942,2.232,10.659,10.293,10.659a22.848,22.848,0,0,0,6.815-.863v7.309a51.614,51.614,0,0,1-8.427.746c-12.525,0-17.235-4.833-17.235-16.116Z" fill="#211c1d"/>
      <path id="路径_7" data-name="路径 7" d="M363.716,125.031c4.25-3.626,8.879-6.5,18.885-7.5v17l-6.384,1c-9.251,1.628-12,3.007-12,11.257v36.755H344.951V118.152h18.765v6.879Z" fill="#211c1d"/>
      <path id="路径_8" data-name="路径 8" d="M428.987,142.784c-.372-2.75-.877-6.376-3.622-9.246a13.538,13.538,0,0,0-9.387-3.629,13.229,13.229,0,0,0-9.75,4.251c-2.629,2.871-3.25,5.874-3.881,8.624Zm19.141,24.132a50.767,50.767,0,0,1-7.885,9.753,35.83,35.83,0,0,1-24.631,9.258c-19.393,0-33.011-12.375-33.011-33.761,0-15.758,7.746-36.009,33.509-36.009,3.875,0,15.13.364,23.508,9.373,8.51,9.127,9,21.882,9.248,29.257H402.227c-.12,8.13,4.5,16.258,14.881,16.258,10.5,0,14.132-6.876,16.5-11.5l14.518,7.372Z" fill="#211c1d"/>
      <path id="路径_9" data-name="路径 9" d="M446.49,118.272h20.254c8.005,29.017,9.378,35.016,11.508,47.516,2.625-14.5,3-16.125,6.872-31.511l4-16h19.756l-21.128,65.272H467.618L446.49,118.272Z" fill="#211c1d"/>
      <path id="路径_10" data-name="路径 10" d="M512.758,118.152H531.77v65.392H512.758V118.152Z" fill="#211c1d"/>
      <path id="路径_11" data-name="路径 11" d="M580.908,142.784c-.379-2.75-.878-6.376-3.629-9.246a13.516,13.516,0,0,0-9.378-3.629,13.245,13.245,0,0,0-9.753,4.251c-2.632,2.871-3.25,5.874-3.875,8.624Zm19.131,24.132a50.594,50.594,0,0,1-7.876,9.753,35.848,35.848,0,0,1-24.64,9.258c-19.377,0-33.008-12.375-33.008-33.761,0-15.758,7.752-36.009,33.516-36.009,3.868,0,15.12.364,23.5,9.373,8.5,9.127,9,21.882,9.251,29.257H554.144c-.126,8.13,4.5,16.258,14.884,16.258,10.5,0,14.123-6.876,16.5-11.5l14.509,7.372Z" fill="#211c1d"/>
      <path id="路径_12" data-name="路径 12" d="M618.664,118.272l9.128,45.644,9.876-45.644h20.51l8.876,46.02,10.255-46.02h19.879l-19.5,65.272H656.8l-9.627-43.51-9.756,43.51H616.288l-17.881-65.272Z" fill="#211c1d"/>
      <path id="路径_13" data-name="路径 13" d="M704.313,161.542c5.247,5.122,11.754,9,19.011,9,4.623,0,11.627-1.5,11.627-6.376a3.98,3.98,0,0,0-2.5-3.749c-2.88-1.508-7.377-1.875-11.132-2.5a74.037,74.037,0,0,1-8.756-2c-3.994-1.132-8.005-2.754-10.873-5.627a17.645,17.645,0,0,1-4.875-12.256c0-10.757,9.248-21.879,27.5-21.879,15.389,0,24.637,6.62,29.14,9.749l-11.88,11c-6.128-4.749-11.88-6.5-16.389-6.5-7.491,0-9.249,3.006-9.249,4.881,0,3.752,4.128,4.492,10.382,5.627,13.132,2.374,28.379,5.876,28.379,21.382,0,15.373-15.5,22.88-30.878,22.88-18.138,0-27.515-8.75-31.642-12.632l12.132-11Z" fill="#211c1d"/>
      <path id="路径_14" data-name="路径 14" d="M522.269,53.456l-6.691,20.2H494.116l17.367,12.5-6.691,20.31,17.477-12.537,17.438,12.537-6.691-20.31,17.4-12.5h-21.5l-6.649-20.2Z" fill="#f76c0a"/>
    </g>
    <path id="路径_15" data-name="路径 15" d="M46.918,202.416l-6.629,20.02H19.018l17.216,12.391L29.6,254.955l17.32-12.428,17.276,12.428-6.626-20.128,17.247-12.391H53.509Z" fill="#f76d0d"/>
    <path id="路径_16" data-name="路径 16" d="M103.881,202.416l-6.632,20.02H75.981L93.19,234.827l-6.632,20.128,17.323-12.428,17.276,12.428-6.625-20.128,17.244-12.391h-21.3Z" fill="#f76d0d"/>
    <path id="路径_17" data-name="路径 17" d="M160.839,202.416l-6.626,20.02H132.938l17.211,12.391-6.631,20.128,17.32-12.428,17.282,12.428-6.626-20.128,17.245-12.391h-21.3Z" fill="#f76d0d"/>
    <path id="路径_18" data-name="路径 18" d="M217.8,202.416l-6.631,20.02H189.9l17.212,12.391-6.632,20.128,17.32-12.428,17.282,12.428-6.631-20.128L245.7,222.436H224.4Z" fill="#f76d0d"/>
    <path id="路径_19" data-name="路径 19" d="M275.8,202.416l-6.631,20.02H247.9l17.212,12.391-6.632,20.128,17.32-12.428,17.282,12.428-6.631-20.128L303.7,222.436H282.4Z" fill="#f76d0d"/>
    <text id="BEST_BUY" data-name="BEST BUY" transform="translate(319 189.875)" fill="#333" font-size="57" font-family="SegoeUI, Segoe UI" letter-spacing="-0.07em"><tspan x="179.322" y="62">BEST BUY</tspan></text>
  </g>
</svg>
