<svg xmlns="http://www.w3.org/2000/svg" xmlns:xlink="http://www.w3.org/1999/xlink" viewBox="0 0 515.91 362.39"><defs><style>.cls-1{fill:none;}.cls-2{fill:#fff;}.cls-3{clip-path:url(#clip-path);}.cls-4{fill:#e52420;}.cls-5{fill:#e21313;}.cls-6{fill:#1c1c1b;}</style><clipPath id="clip-path"><polyline class="cls-1" points="32.74 32.26 32.74 163.88 484.37 163.88 484.37 32.26"/></clipPath></defs><title>资源 1</title><g id="图层_2" data-name="图层 2"><g id="Layer_1" data-name="Layer 1"><rect class="cls-2" width="515.91" height="362.39"/><g class="cls-3"><path class="cls-4" d="M204.63,153c-6.28,4.47-18.46,7.51-28.85,7.51-22.91,0-33.11-11.81-33.11-32.57V99.81h-8.83V73.18h8.83V45.86l43.94-.06.09,27.38h17.93V99.81H186.7v17.72c0,9.12,1.8,12.16,7.71,12.16A25.51,25.51,0,0,0,204.63,127Z"/><path class="cls-4" d="M200.61,73.18h54.26v44.21c0,9.32,2.7,13.63,9.92,13.63a25.38,25.38,0,0,0,13.53-4V99.81H266.77V73.18h55.58v58.2h10.22V158H278.32V147.34c-10.83,7.71-24.17,12.37-35.81,12.37-17.18,0-31.69-10.76-31.69-36.41V99.81H200.61Z"/><path class="cls-4" d="M332.28,131.38H343V99.81H332.28V73.18H343c-.72-30.41,19.33-39,51.38-39,4.13,0,13.27.36,18.64.18V57.93c-2.33-.17-6.81-.53-10.57-.53-13.08,0-15.59,3.9-15.41,15.78h16.13V99.81H387.08v31.57h14.33V158H332.28Z"/><path class="cls-4" d="M400.54,131.38h10.75V99.81H400.54V73.18h10.75c-.72-30.41,19.33-39,51.39-39,4.12,0,13.26.36,18.64.18V57.93c-2.33-.17-6.81-.53-10.58-.53-13.08,0-15.59,3.9-15.41,15.78h16.13V99.81H455.33v31.57h14.34V158H400.54Z"/><path class="cls-4" d="M32.74,157.66V116.72h30c4.58,9.53,13.78,14.57,24.22,14.57,4,0,10.91-2,10.91-7C97.84,110.56,33,122,33,75.05c0-26.18,18.37-42.79,44.18-42.79,9.91,0,17.38,2.67,25.7,7.93V33.55h28.28v41.5H101.9c-1.54-8.32-5.58-14.57-15.9-14.57-4.13,0-11.09,1.21-11.09,6.64,0,3.79,5,7.23,10.17,8.89l20.52,7.4c18.91,6.12,32.72,14,32.72,36.33,0,25.71-21.4,39.21-45.85,39.21-11.38,0-20.12-3.13-30.13-8.3v7Z"/><path class="cls-5" d="M204.63,153c-6.28,4.47-18.46,7.51-28.85,7.51-22.91,0-33.11-11.81-33.11-32.57V99.81h-8.83V73.18h8.83V45.86l43.94-.06.09,27.38h17.93V99.81H186.7v17.72c0,9.12,1.8,12.16,7.71,12.16A25.51,25.51,0,0,0,204.63,127Z"/><path class="cls-5" d="M200.61,73.18h54.26v44.21c0,9.32,2.7,13.63,9.92,13.63a25.38,25.38,0,0,0,13.53-4V99.81H266.77V73.18h55.58v58.2h10.22V158H278.32V147.34c-10.83,7.71-24.17,12.37-35.81,12.37-17.18,0-31.69-10.76-31.69-36.41V99.81H200.61Z"/><path class="cls-5" d="M332.28,131.38H343V99.81H332.28V73.18H343c-.72-30.41,19.33-39,51.38-39,4.13,0,13.27.36,18.64.18V57.93c-2.33-.17-6.81-.53-10.57-.53-13.08,0-15.59,3.9-15.41,15.78h16.13V99.81H387.08v31.57h14.33V158H332.28Z"/><path class="cls-5" d="M400.54,131.38h10.75V99.81H400.54V73.18h10.75c-.72-30.41,19.33-39,51.39-39,4.12,0,13.26.36,18.64.18V57.93c-2.33-.17-6.81-.53-10.58-.53-13.08,0-15.59,3.9-15.41,15.78h16.13V99.81H455.33v31.57h14.34V158H400.54Z"/><path class="cls-5" d="M32.74,157.66V116.72h30c4.58,9.53,13.78,14.57,24.22,14.57,4,0,10.91-2,10.91-7C97.84,110.56,33,122,33,75.05c0-26.18,18.37-42.79,44.18-42.79,9.91,0,17.38,2.67,25.7,7.93V33.55h28.28v41.5H101.9c-1.54-8.32-5.58-14.57-15.9-14.57-4.13,0-11.09,1.21-11.09,6.64,0,3.79,5,7.23,10.17,8.89l20.52,7.4c18.91,6.12,32.72,14,32.72,36.33,0,25.71-21.4,39.21-45.85,39.21-11.38,0-20.12-3.13-30.13-8.3v7Z"/></g><path class="cls-5" d="M116.05,199.43l-24.9,18.1,9.56,29.4-25-18.18-25,18.18,9.58-29.41L35.42,199.43l30.78,0,9.54-29.27,9.51,29.27Z"/><path class="cls-5" d="M203.57,199.43l-24.9,18.1,9.56,29.4-25-18.18-25,18.18,9.59-29.41-24.88-18.09,30.78,0,9.54-29.27,9.52,29.27Z"/><path class="cls-5" d="M291.08,199.43l-24.9,18.1,9.56,29.4-25-18.18-25,18.18,9.58-29.41-24.87-18.09,30.78,0,9.54-29.27,9.51,29.27Z"/><path class="cls-5" d="M378.6,199.43l-24.9,18.1,9.56,29.4-25-18.18-25,18.18,9.58-29.41L298,199.43l30.78,0,9.54-29.27,9.52,29.27Z"/><path class="cls-5" d="M466.11,199.43l-24.9,18.1,9.56,29.4-25-18.18-25,18.18,9.58-29.41-24.87-18.09,30.78,0,9.54-29.27,9.51,29.27Z"/><path class="cls-6" d="M160.63,298.39a2,2,0,1,1-3.94,0V290.2H147v8.19a2,2,0,1,1-3.95,0V278.91a2,2,0,0,1,3.95,0v7.69h9.72v-7.69a2,2,0,1,1,3.94,0Z"/><path class="cls-6" d="M167.88,286.22v7.92c0,1.57.54,3.06,3.06,3.06s3-1.49,3-3.06v-7.92a1.84,1.84,0,0,1,3.67,0v7.92c0,3.34-1.25,6.4-6.69,6.4s-6.74-3.06-6.74-6.4v-7.92a1.84,1.84,0,0,1,3.68,0Z"/><path class="cls-6" d="M183.55,288.74a1.63,1.63,0,0,1-2.62-1.26,1.71,1.71,0,0,1,.44-1.12,7.18,7.18,0,0,1,5.58-2.18c4.22,0,6.73,2.08,6.73,5.68v8.7a1.8,1.8,0,1,1-3.6,0c-.92,1.47-2.42,2-4.46,2-3.33,0-5.54-2.08-5.54-5.14s2.55-4.79,5.51-4.79H190V290c0-1.53-1.12-2.55-3.09-2.55A5.62,5.62,0,0,0,183.55,288.74Zm6.49,5.68v-1h-4c-1.5,0-2.32.72-2.32,1.94s.92,2.08,2.83,2.08A3.21,3.21,0,0,0,190,294.42Z"/><path class="cls-6" d="M205.72,291.63,203.61,299a1.85,1.85,0,0,1-3.5.14L195.45,287a2.56,2.56,0,0,1-.17-.82,1.83,1.83,0,0,1,1.84-1.83,1.79,1.79,0,0,1,1.73,1.19l2.82,8.36,2.28-8.23a1.84,1.84,0,0,1,3.5-.1l2.28,8.33,2.79-8.36a1.8,1.8,0,0,1,1.76-1.19,1.75,1.75,0,0,1,1.84,1.77,2,2,0,0,1-.17.71l-4.66,12.34a1.73,1.73,0,0,1-1.7,1.16,1.88,1.88,0,0,1-1.77-1.3Z"/><path class="cls-6" d="M224.35,284.18c5.74,0,6.8,4.42,6.8,6.77,0,1.26,0,2.72-2.08,2.72h-8.39c0,2.45,1.73,3.57,4,3.57a5.79,5.79,0,0,0,3.37-1.06,1.88,1.88,0,0,1,1.09-.37,1.6,1.6,0,0,1,1.6,1.6,1.75,1.75,0,0,1-.58,1.26,8,8,0,0,1-5.48,1.87c-4.72,0-7.64-2.55-7.64-8.23C217,287.11,219.73,284.18,224.35,284.18Zm-3.57,6.43h6.73a3,3,0,0,0-3.16-3.3A3.32,3.32,0,0,0,220.78,290.61Z"/><path class="cls-6" d="M233.53,280.41a2.2,2.2,0,1,1,4.39,0,2.2,2.2,0,0,1-4.39,0Zm4,18.12a1.84,1.84,0,1,1-3.67,0V286.22a1.84,1.84,0,0,1,3.67,0Z"/><path class="cls-6" d="M252.91,291.19v7.2a2,2,0,1,1-3.94,0v-19.2a2,2,0,0,1,2-2h6.49c4,0,7.14,2.21,7.14,7s-3.09,7-7.14,7Zm0-10.44v6.9h4.21a3.45,3.45,0,0,0,0-6.9Z"/><path class="cls-6" d="M269.77,280.68a1.74,1.74,0,0,1,0-3.47h10.88a1.75,1.75,0,0,1,1.74,1.74,1.66,1.66,0,0,1-.45,1.15l-5,5.61c4.79.55,6.26,3.88,6.26,7.48,0,4.66-2.83,7.35-8.37,7.35a9.45,9.45,0,0,1-7.78-3.78,1.73,1.73,0,0,1-.31-1,1.82,1.82,0,0,1,1.8-1.8,2.05,2.05,0,0,1,1.63.88,5.74,5.74,0,0,0,4.66,2.32c3.06,0,4.49-1.53,4.49-3.95s-1-4.08-4.05-4.08h-2.1a1.77,1.77,0,0,1-1.84-1.77,1.69,1.69,0,0,1,.44-1.18l4.8-5.48Z"/><path class="cls-6" d="M304.11,288.64c0,8.16-2.82,11.93-8.87,11.93s-8.91-3.77-8.91-11.93,2.79-11.9,8.91-11.9S304.11,280.51,304.11,288.64Zm-3.87,0c0-5.92-1.5-8.5-5-8.5s-5,2.58-5,8.5,1.53,8.5,5,8.5S300.24,294.62,300.24,288.64Z"/><path class="cls-6" d="M319.28,291.19v7.2a2,2,0,1,1-3.95,0v-19.2a2,2,0,0,1,2-2h6.5c4,0,7.14,2.21,7.14,7s-3.1,7-7.14,7Zm0-10.44v6.9h4.21a3.45,3.45,0,0,0,0-6.9Z"/><path class="cls-6" d="M337.43,286.39a4.24,4.24,0,0,1,3.67-2.17,1.73,1.73,0,1,1,0,3.46,3.44,3.44,0,0,0-3.67,3.78v7.07a1.84,1.84,0,1,1-3.67,0V286.22a1.84,1.84,0,0,1,3.67,0Z"/><path class="cls-6" d="M351.34,300.54c-4.59,0-7.45-2.62-7.45-8.16s2.86-8.2,7.45-8.2,7.44,2.62,7.44,8.2S355.93,300.54,351.34,300.54Zm0-13.23c-2.45,0-3.74,1.7-3.74,5.07s1.29,5,3.74,5,3.74-1.7,3.74-5S353.79,287.31,351.34,287.31Z"/><path class="cls-6" d="M204.83,327.54l-1.76,4.39a.83.83,0,0,1-1.61-.24.9.9,0,0,1,.08-.36l5.85-14.81a.79.79,0,0,1,.77-.55.84.84,0,0,1,.79.55l5.86,14.81a1.13,1.13,0,0,1,.07.36.84.84,0,0,1-1.63.26l-1.73-4.41Zm3.33-8.84-2.83,7.35H211Z"/><path class="cls-6" d="M218.5,322v.77a3.77,3.77,0,0,1,3.27-1.68c3.12,0,5,1.82,5,5.76s-1.9,5.78-5,5.78a3.84,3.84,0,0,1-3.27-1.68v5.43a.77.77,0,1,1-1.53,0V322a.77.77,0,1,1,1.53,0Zm3.27,9.24c2.21,0,3.46-1.39,3.46-4.39s-1.3-4.37-3.51-4.37c-1.77,0-3.26,1.25-3.26,4.37S219.9,331.23,221.77,331.23Z"/><path class="cls-6" d="M230.72,323.05a3.46,3.46,0,0,1,3.34-1.92.74.74,0,1,1,0,1.48c-2.21,0-3.34,1.54-3.34,3.75v5.38a.77.77,0,0,1-1.54,0V322a.77.77,0,0,1,1.54,0Z"/><path class="cls-6" d="M236.43,318.05c0-.69.34-1,.91-1s.92.27.92,1a.92.92,0,1,1-1.83,0Zm1.68,13.69a.77.77,0,0,1-1.53,0V322a.77.77,0,1,1,1.53,0Z"/><path class="cls-6" d="M242.77,316V329.7c0,1,.31,1.36,1,1.36a.72.72,0,1,1,0,1.44c-1.61,0-2.5-1-2.5-2.8V316a.79.79,0,0,1,.77-.77A.78.78,0,0,1,242.77,316Z"/><path class="cls-6" d="M257.05,315.82c3.22,0,5.14,1.87,5.14,4.68,0,5.76-8.91,7.44-8.91,10.32h8.38a.75.75,0,0,1,.74.75.74.74,0,0,1-.74.74h-9.27a.74.74,0,0,1-.74-.74c0-5.28,8.93-5.86,8.93-11.07,0-1.85-1.25-3.24-3.53-3.24a3.38,3.38,0,0,0-3.41,2.21.74.74,0,0,1-.7.48.75.75,0,0,1-.74-.74.82.82,0,0,1,.05-.27A4.65,4.65,0,0,1,257.05,315.82Z"/><path class="cls-6" d="M276.56,324.22c0,5.76-1.89,8.43-5.93,8.43s-5.93-2.67-5.93-8.43,1.9-8.4,5.93-8.4S276.56,318.46,276.56,324.22Zm-1.58,0c0-5-1.37-7-4.35-7s-4.34,2-4.34,7,1.37,7,4.34,7S275,329.19,275,324.22Z"/><path class="cls-6" d="M280,320a.78.78,0,1,1-.89-1.27l3.77-2.62a.77.77,0,0,1,.48-.16.8.8,0,0,1,.79.79v14.95a.79.79,0,1,1-1.58,0V318.17Z"/><path class="cls-6" d="M287.43,321.22c0-3.86,2.31-5.4,5.59-5.4,4,0,5.69,3.34,5.69,8,0,6.22-2.23,8.79-6,8.79a5.5,5.5,0,0,1-3.87-1.32.8.8,0,0,1-.24-.55.76.76,0,0,1,.75-.75.79.79,0,0,1,.5.19,4.66,4.66,0,0,0,2.86,1c3.38,0,4.44-3,4.44-6.77a5.17,5.17,0,0,1-4.25,2.11C289.74,326.55,287.43,324.87,287.43,321.22Zm1.59,0a3.52,3.52,0,0,0,3.86,3.89A4.59,4.59,0,0,0,297,322.5c0-3-1.37-5.24-4-5.24C290.7,317.26,289,318.27,289,321.22Z"/></g></g></svg>