<svg xmlns="http://www.w3.org/2000/svg" viewBox="0 0 415.77 224.17"><defs><style>.cls-1{fill:#fff;}.cls-2{fill:#005bac;}.cls-3{fill:#2e1859;}.cls-4{fill:#7c5a99;}.cls-5{fill:#e60012;}.cls-6{fill:#fff100;}.cls-7{fill:#f7f8f8;}</style></defs><title>资源 1</title><g id="图层_2" data-name="图层 2"><g id="Layer_1" data-name="Layer 1"><path id="bela_podloga" data-name="bela podloga" class="cls-1" d="M415.77,145.3V27.92C415.76,12.5,404,0,389.59,0H0V198a26.22,26.22,0,0,0,26.24,26.15H415.77V145.3Z"/><g id="sarena_polja" data-name="sarena polja"><rect class="cls-2" width="156.08" height="141.3"/><rect class="cls-3" y="145.3" width="415.76" height="37.48"/><path class="cls-4" d="M26.31,224.17A26.22,26.22,0,0,1,.07,198V186.89h415.7v37.28Z"/><path class="cls-5" d="M389.59,0a26.17,26.17,0,0,1,26.17,26.16V141.3H160.2V0Z"/><path class="cls-1" d="M23.66,80.19H15.92l-2.28,5H10.3l9.47-20.33,9.47,20.33H25.88Zm-1.12-2.66-2-4.46a17.66,17.66,0,0,1-.74-2.22,15.48,15.48,0,0,1-.71,2.22l-2,4.46Z"/><path class="cls-1" d="M37.68,65.65l3.7,9.88c.38,1,.74,2.06,1,3.1.57-1.89,1-3,1.07-3.29l3.94-10.45,4.13,10.64c.35.93.71,2,1,3.12a27.15,27.15,0,0,1,1-3l3.66-10H60.4L52.82,86,48.36,74.82a26.56,26.56,0,0,1-1-2.73q-.4,1.43-.93,2.79L42.09,86,34.54,65.65Z"/><path class="cls-1" d="M79.05,80.19H71.3l-2.27,5H65.69l9.47-20.33,9.47,20.33H81.26Zm-1.13-2.66-2-4.46a17.66,17.66,0,0,1-.74-2.22,15.48,15.48,0,0,1-.71,2.22l-2,4.46Z"/><path class="cls-1" d="M95.74,85.22h-3V65.65h4.43c2.11,0,3.67.17,4.87,1.1a5.34,5.34,0,0,1,1.89,4.3c0,3.14-1.53,4.92-4.49,5.28l6.73,8.89h-3.58L96.1,76.46h-.36ZM96.51,74c2.79,0,4.18-.33,4.18-2.68s-1.34-2.93-4.18-2.93h-.58V74Z"/><path class="cls-1" d="M114.38,65.65h4.29c3.67,0,6.49,0,8.87,1.84S131,72,131,75.45s-1.21,6.21-3.45,7.94-4.84,1.83-8,1.83h-5.14Zm4.32,16.7h1.53c2.17,0,3.83-.11,5.23-1.29a7,7,0,0,0,2.22-5.64,7,7,0,0,0-2.22-5.63c-1.45-1.21-3.26-1.29-5.61-1.29h-2.3V82.35Z"/><polygon class="cls-1" points="10.12 53.68 36.64 53.68 36.64 43.07 24.33 43.07 24.33 39.26 35.2 39.26 35.2 29.17 24.33 29.17 24.33 25.46 36.23 25.46 36.23 14.86 10.12 14.86 10.12 53.68"/><rect class="cls-1" x="40.22" y="14.86" width="14.11" height="38.83"/><path class="cls-1" d="M57,50.75A35,35,0,0,0,71.88,54.3c8.39,0,16.84-4.58,16.84-13.85,0-6.59-4.33-9.79-10.3-11.12l-3.19-.73c-1.08-.25-2.83-.46-2.83-1.9,0-1.6,1.8-2.06,3-2.06a14.72,14.72,0,0,1,8.19,2.93l3.81-9.93a23.09,23.09,0,0,0-12.31-3.4c-8.44,0-16.83,5.15-16.83,14.36,0,6.08,4.63,9.33,10.14,10.3l2.83.52c1.29.25,3.14.41,3.14,2.16s-2.21,2.32-3.6,2.32c-3.24,0-6.28-1.6-8.81-3.55l-.72-.57Z"/><path class="cls-1" d="M104,48.84h10.66l1.29,4.84h14.93L117,14.86h-15.6L87.9,53.68h14.93Zm2.52-9.22,2.58-11.84h.51c.26,1.65.52,3.35.93,5l1.65,6.84Z"/><rect class="cls-5" x="10.19" y="56.66" width="121.06" height="5.19"/><path class="cls-6" d="M9.79,92.54,8.21,89.38,11.35,91l2.48-2.48L13.26,92l3.1,1.61-3.47.5-.59,3.5-1.57-3.14-3.37.5Z"/><path class="cls-6" d="M18.26,106,16,103.26l3.42.85,1.87-3,.22,3.48,3.38.88-3.28,1.26.21,3.54-2.23-2.71-3.18,1.24Z"/><path class="cls-6" d="M29.52,117.18,26.73,115l3.53.08,1.17-3.3,1,3.35,3.5.11L33,117.21l1,3.41-2.78-2.15-2.83,1.91Z"/><path class="cls-6" d="M43,125.63l-3.2-1.49,3.47-.69.42-3.47,1.69,3,3.44-.66-2.43,2.54,1.71,3.1-3.19-1.48L42.55,129Z"/><path class="cls-6" d="M58,130.92l-3.45-.75,3.24-1.44-.35-3.47,2.32,2.6L63,126.47l-1.82,3,2.35,2.65L60,131.37l-1.75,2.93Z"/><path class="cls-6" d="M73.82,132.85H70.29l2.86-2.09-1.09-3.31,2.83,2,2.85-2-1.14,3.31,2.86,2.09H75.94l-1.09,3.23Z"/><path class="cls-6" d="M89.71,131.33l-3.46.77,2.34-2.66-1.79-3L90,127.82l2.34-2.61L92,128.68l3.26,1.41-3.45.77-.35,3.39Z"/><path class="cls-6" d="M104.89,126.37l-3.2,1.51,1.7-3.11L101,122.25l3.44.63,1.71-3,.39,3.47L110,124l-3.2,1.51.4,3.37Z"/><path class="cls-6" d="M118.64,118.2l-2.8,2.18,1-3.4-2.91-1.93,3.5-.14,1-3.35,1.14,3.3,3.55-.13-2.79,2.17,1.14,3.2Z"/><path class="cls-6" d="M130.26,107.2,128,110l.2-3.53-3.27-1.22,3.38-.92.22-3.49,1.86,3,3.44-.92-2.24,2.73,1.82,2.87Z"/><path class="cls-6" d="M139.11,93.88l-1.56,3.18-.62-3.47-3.46-.45,3.08-1.66L136,88l2.49,2.44,3.14-1.67L140.05,92l2.43,2.36Z"/><path class="cls-6" d="M144.68,78.9l-.79,3.44-1.4-3.23-3.48.36,2.62-2.32-1.36-3.21,3,1.81,2.68-2.35-.79,3.44,2.91,1.74Z"/><path class="cls-6" d="M146.67,63l0,3.53-2.1-2.82-3.32,1.14,2-2.86-2.06-2.8,3.33,1.07,2.07-2.89,0,3.52,3.24,1Z"/><path class="cls-6" d="M145,47.15l.84,3.43-2.71-2.25-3,1.87L141.46,47,138.8,44.7l3.49.28,1.35-3.29.84,3.42,3.39.25Z"/><path class="cls-6" d="M139.68,32.15l1.59,3.14-3.15-1.58-2.46,2.5.54-3.46-3.1-1.59,3.46-.51.57-3.51,1.59,3.13,3.37-.52Z"/><path class="cls-6" d="M131.13,18.75l2.26,2.71L130,20.62l-1.85,3-.24-3.49-3.38-.85L127.75,18l-.22-3.54,2.25,2.7L133,15.88Z"/><path class="cls-1" d="M171.45,15.89H181c3.88,0,6.92,0,9.3,1.08a6.85,6.85,0,0,1,4.45,6.63c0,3.54-1.72,5.44-5.73,6.51,4.5.35,7.14,3.24,7.14,7.81a7.73,7.73,0,0,1-4.1,7.24c-2.82,1.46-6.56,1.55-11.72,1.55h-8.9Zm9.69,12.33c3.62,0,5.56-.52,5.56-3.06,0-2.76-1.94-3.15-5.42-3.15h-1.85v6.21Zm1.28,12.2c3.66,0,5.6-.69,5.6-3.24,0-2.93-1.76-3.49-5.47-3.49h-3.12v6.73Z"/><path class="cls-1" d="M206.35,37.57c0,3.32,1.81,5.13,4.89,5.13,2.34,0,3.92-.86,4.76-2.54l5.77,2.28c-1.36,3.19-4.93,5.09-10.09,5.09-7.93,0-12.56-4.79-12.56-11.21S204,24.77,211.24,24.77c7,0,11.63,4.65,11.63,12.46v.34ZM211,29.34c-2.47,0-4,1.33-4.46,4h8.82A4.27,4.27,0,0,0,211,29.34Z"/><path class="cls-1" d="M226.4,39.21a12.1,12.1,0,0,0,7.75,3c1.94,0,2.95-.64,2.95-1.76,0-1.77-1.76-1.77-4.62-2.5-4.5-1.17-6.57-3.11-6.57-6.34,0-3.88,3.13-6.81,8.81-6.81a21.68,21.68,0,0,1,8.69,1.94l-1.59,5.17a11.19,11.19,0,0,0-6.26-2.07c-1.76,0-2.64.56-2.64,1.55,0,1.47,1.94,1.56,5,2.46,4.14,1.21,6.17,3,6.17,6.42,0,4.27-3.57,7.29-9.35,7.29a18.64,18.64,0,0,1-9.91-2.59Z"/><path class="cls-1" d="M248.91,30.76h-3.26v-5.3h3.26V19.12h7.54v6.34h3.26v5.3h-3.26v16h-7.54Z"/><path class="cls-1" d="M171.45,91.91V61.09h9.61c4,0,7.09,0,9.56,1.59,2.78,1.73,4.41,4.92,4.41,8.88s-1.55,7.16-4.37,8.8c-2.16,1.25-4.58,1.38-7.53,1.38h-3.62V91.91ZM181.14,75c3.66,0,5.56-.69,5.56-3.67s-2-3.57-5.47-3.57h-1.72V75Z"/><path class="cls-1" d="M198.46,70.66h7.23v5c1.41-3.54,4.1-5.48,7.44-5.48.53,0,1.24,0,2.16.13l-.75,6.81a9.57,9.57,0,0,0-2.64-.43c-3.61,0-5.82,2.16-5.82,6.43v8.79h-7.62Z"/><path class="cls-1" d="M228.56,92.73c-6.92,0-12.12-5.13-12.12-11.38S221.68,70,228.56,70s12.16,5.08,12.16,11.38S235.43,92.73,228.56,92.73Zm0-16.51c-2.82,0-4.54,2-4.54,5.13s1.72,5.08,4.54,5.08,4.53-1.94,4.53-5.08S231.38,76.22,228.56,76.22Z"/><path class="cls-1" d="M268.08,91.91H261V88.46c-1.94,2.85-4.36,4.27-7.36,4.27-6,0-10-4.31-10-11.43,0-6.89,4.05-11.33,9.74-11.33,3.57,0,5.64,1,7.58,4.22a25.91,25.91,0,0,1-.27-3.79V59.28h7.36ZM256.27,76c-3.08,0-5,2.07-5,5.34s1.9,5.35,5,5.35,5-2,5-5.35S259.36,76,256.27,76Z"/><path class="cls-1" d="M295.62,81.52c0,3.32-.09,6-2.6,8.41-1.94,1.89-4.8,2.8-8.64,2.8s-6.65-.91-8.68-2.8c-2.42-2.29-2.55-5-2.55-8.41V70.66h7.31V82c0,3.32.93,5.05,3.83,5.05s3.84-1.73,3.84-5.05V70.66h7.49Z"/><path class="cls-1" d="M312,75.79c-3,0-5,2-5,5.47,0,3.19,1.93,5.35,5.15,5.35a5.39,5.39,0,0,0,4.14-1.86v6.51a11.49,11.49,0,0,1-5.59,1.47c-6.44,0-11.24-4.36-11.24-11.43A10.87,10.87,0,0,1,310.78,70a10.39,10.39,0,0,1,5.5,1.33v6.34A6.39,6.39,0,0,0,312,75.79Z"/><path class="cls-1" d="M321.75,76h-3.26v-5.3h3.26V64.32h7.53v6.34h3.26V76h-3.26v16h-7.53Z"/></g><path class="cls-7" d="M82.44,153.85h5.22c2.2,0,3.85.09,5.13,1.05a5.29,5.29,0,0,1,2,4.38,4.11,4.11,0,0,1-3,4.32c2.41.38,3.89,2.32,3.89,5.1A6.15,6.15,0,0,1,94,173c-1.48,1.48-3.45,1.56-6.35,1.56H82.44ZM87,162.61c3,0,4.41-.69,4.41-2.87,0-2.58-1.42-3.07-4.41-3.07H85.74v5.94Zm-.12,9.17c1.89,0,3.22-.09,4-.64a3.1,3.1,0,0,0,1.31-2.64,3,3,0,0,0-1.6-2.87,5.8,5.8,0,0,0-2.72-.46H85.74v6.61Z"/><path class="cls-7" d="M98.75,153.85h11.57v2.87h-8.2v5.2h8.2v3h-8.2v6.7h8.2v3H98.75Z"/><path class="cls-7" d="M114.91,169.2a3.74,3.74,0,0,0,4,2.84,3,3,0,0,0,3.28-3.07c0-2-1.53-2.53-3.68-3.57-3.68-1.8-5.72-3.19-5.72-6.33,0-3.33,2.47-5.68,6.24-5.68,3.08,0,5.19,1.25,6,3.42l-2.64,1.36a3.48,3.48,0,0,0-3.08-1.88c-1.83,0-3,1-3,2.61,0,2,1.63,2.61,4,3.68,3.65,1.69,5.36,3.17,5.36,6.15,0,3.86-2.58,6.41-6.87,6.41-3.54,0-5.86-1.68-6.56-4.7Z"/><path class="cls-7" d="M135.52,174.59h-3.36V156.72h-5.52v-2.87H141v2.87h-5.48Z"/><path class="cls-7" d="M152.4,169.2a3.73,3.73,0,0,0,4,2.84,3,3,0,0,0,3.28-3.07c0-2-1.54-2.53-3.69-3.57-3.68-1.8-5.71-3.19-5.71-6.33,0-3.33,2.47-5.68,6.24-5.68,3.07,0,5.19,1.25,6,3.42l-2.64,1.36a3.47,3.47,0,0,0-3.07-1.88c-1.83,0-3,1-3,2.61,0,2,1.62,2.61,3.94,3.68,3.66,1.69,5.37,3.17,5.37,6.15,0,3.86-2.58,6.41-6.88,6.41-3.53,0-5.85-1.68-6.55-4.7Z"/><path class="cls-7" d="M182.57,161.51a10.44,10.44,0,0,1-1,2.87l-5.42,11.05-5.43-11.28a16.38,16.38,0,0,1-1-2.64,15.87,15.87,0,0,1-.38,2.87l-2.23,10.21H164L168.94,153l6.12,13c.17.38.55,1.31,1.13,2.82.4-1.16.87-2.09,1.19-2.82l6-13,5,21.55h-3.13L183,164.35C182.86,164,182.77,163.05,182.57,161.51Z"/><path class="cls-7" d="M203.12,169.26h-8.21l-2.41,5.33H189L199,153l10,21.55h-3.57Zm-1.19-2.82-2.12-4.73a19.89,19.89,0,0,1-.78-2.35,16.1,16.1,0,0,1-.75,2.35l-2.12,4.73Z"/><path class="cls-7" d="M213.75,174.59h-3.16V153.85h4.7c2.23,0,3.89.18,5.16,1.16a5.67,5.67,0,0,1,2,4.56c0,3.33-1.62,5.22-4.75,5.6l7.13,9.42H221l-6.9-9.28h-.38Zm.81-11.89c3,0,4.44-.35,4.44-2.84s-1.42-3.11-4.44-3.11H214v5.95Z"/><path class="cls-7" d="M232.74,174.59h-3.36V156.72h-5.51v-2.87h14.36v2.87h-5.49Z"/><path class="cls-7" d="M243.24,174.59h-3.16V153.85h5.1c2.12,0,3.8.06,5.19,1.08a5.64,5.64,0,0,1,2.09,4.64,5.71,5.71,0,0,1-2.09,4.67c-1.39,1-3.07,1-5.19,1h-1.94Zm1.07-12.06c3.11,0,4.67-.35,4.67-2.76s-1.53-3-4.67-3h-.87v5.78Z"/><path class="cls-7" d="M254.54,153.85h3.36v7.66h10.21v-7.66h3.37v20.74h-3.37V164.53H257.9v10.06h-3.36Z"/><path class="cls-7" d="M293.53,172a11.24,11.24,0,0,1-15.69,0,10.49,10.49,0,0,1-3.22-7.68,10.61,10.61,0,0,1,3.22-7.72,11.32,11.32,0,0,1,15.69,0,10.69,10.69,0,0,1,3.25,7.72A10.51,10.51,0,0,1,293.53,172ZM291,158.75a7.39,7.39,0,0,0-5.34-2.26,7.51,7.51,0,0,0-5.37,2.26,8,8,0,0,0,0,11,7.47,7.47,0,0,0,10.71,0,7.9,7.9,0,0,0,0-11Z"/><path class="cls-7" d="M299.94,153l13.17,12.68a26.49,26.49,0,0,1,2.26,2.52V153.85h3.1v21.56L305,162.5a17.31,17.31,0,0,1-2-2.32v14.41h-3.1Z"/><path class="cls-7" d="M322.66,153.85h11.57v2.87H326v5.2h8.21v3H326v6.7h8.21v3H322.66Z"/><path class="cls-7" d="M109.91,194.18h3.37v7.66h10.21v-7.66h3.36v20.74h-3.36V204.85H113.28v10.07h-3.37Z"/><path class="cls-7" d="M133.49,209.06c0,2.52.93,3.65,3.42,3.65s3.43-1.13,3.43-3.65v-7.57h3.07v6.64c0,5-1.85,7.34-6.47,7.34s-6.52-2.29-6.52-7.34v-6.64h3.07Z"/><path class="cls-7" d="M156.19,214.92v-1.74a5.13,5.13,0,0,1-4.43,2.29c-3.75,0-6.12-2.7-6.12-7.28,0-4.32,2.49-7.17,6-7.17a4.53,4.53,0,0,1,4.52,2.67v-2.2h3.08v13.43Zm-3.59-11.17c-2.32,0-3.74,1.68-3.74,4.53s1.36,4.46,3.68,4.46c2.12,0,3.74-1.74,3.74-4.58S154.89,203.75,152.6,203.75Z"/><path class="cls-7" d="M172.56,208.74a22.77,22.77,0,0,1-1-2.67c-.44,1.28-.76,2.15-.93,2.55l-3.19,7.11-7-14.24h3.28l3,6.47a12.07,12.07,0,0,1,.67,2.72,6.26,6.26,0,0,1,.69-2.43l3.28-7.25h.26l3.34,7.25a6.18,6.18,0,0,1,.64,2.43,10.32,10.32,0,0,1,.78-2.69l3-6.5h3.25l-7,14.24Z"/><path class="cls-7" d="M185.53,208.65c.15,2.53,1.57,4,3.8,4a4.33,4.33,0,0,0,4.21-2.64l2.58,1.45a7.19,7.19,0,0,1-6.73,4c-4.29,0-7-2.84-7-7.22a6.86,6.86,0,0,1,7-7.23c4.32,0,6.87,2.59,6.87,7v.58Zm3.92-5a3.48,3.48,0,0,0-3.72,3h7.34C192.84,204.65,191.56,203.63,189.45,203.63Z"/><path class="cls-7" d="M200.1,193.77a1.88,1.88,0,0,1,1.92,1.92,1.9,1.9,0,0,1-1.92,1.94,2,2,0,0,1-1.94-1.94A1.94,1.94,0,0,1,200.1,193.77Zm-1.53,7.72h3.07v13.43h-3.07Z"/><path class="cls-7" d="M216.75,214.92h-3.16V194.18h5.1c2.12,0,3.8.06,5.2,1.07a5.68,5.68,0,0,1,2.08,4.64,5.74,5.74,0,0,1-2.08,4.67c-1.4,1-3.08,1.05-5.2,1.05h-1.94Zm1.07-12.07c3.11,0,4.67-.35,4.67-2.75s-1.53-3-4.67-3H217v5.77Z"/><path class="cls-7" d="M230.33,209.38v.17c0,1.89,1.39,3.14,3.62,3.14,2.53,0,4-1.31,4-3.66s-1.42-3.74-4.21-3.74c-.2,0-.4,0-.64,0v-2.73c.21,0,.41,0,.61,0,2.44,0,3.72-1,3.72-3.05a2.82,2.82,0,0,0-3.11-2.9c-2,0-3.22,1-3.27,2.79H228c.2-3.51,2.44-5.48,6.41-5.48s6.18,2.14,6.18,5.51c0,2.52-1.31,4.26-3.57,4.61,2.61.46,4,2.32,4,5.37,0,3.59-2.67,6-7.16,6-4,0-6.62-2.35-6.73-6.09Z"/><path class="cls-7" d="M251.19,215.47c-4.64,0-7.45-3.86-7.45-10.76S246.58,194,251.22,194s7.43,3.82,7.43,11C258.65,211.61,255.78,215.47,251.19,215.47Zm4.09-10.79c0-5.14-1.42-7.83-4-7.83s-4.15,2.67-4.15,7.89,1.48,7.83,4,7.83C253.89,212.57,255.28,209.93,255.28,204.68Z"/><path class="cls-7" d="M272.8,214.92h-3.16V194.18h5.1c2.12,0,3.8.06,5.19,1.07a5.65,5.65,0,0,1,2.09,4.64,5.71,5.71,0,0,1-2.09,4.67c-1.39,1-3.07,1.05-5.19,1.05H272.8Zm1.07-12.07c3.1,0,4.67-.35,4.67-2.75s-1.54-3-4.67-3H273v5.77Z"/><path class="cls-7" d="M290.18,201a5.64,5.64,0,0,1,2.52.61l-1.1,2.61a3.16,3.16,0,0,0-1.88-.55c-2.18,0-2.88,1.71-2.88,5.34v5.89h-3.07V201.46h3.07v2.17C287.51,201.87,288.56,201,290.18,201Z"/><path class="cls-7" d="M294.48,203.11a7.52,7.52,0,0,1,10.44,0,7,7,0,0,1,2.18,5.08,6.88,6.88,0,0,1-2.15,5.1,7.47,7.47,0,0,1-5.28,2.15,7.37,7.37,0,0,1-5.19-2.12,7.13,7.13,0,0,1,0-10.24Zm5.22.67a4.48,4.48,0,1,0,4.15,4.47A4.27,4.27,0,0,0,299.7,203.78Z"/><path class="cls-1" d="M185.13,127.73h-13.9l7.75-9.28c1.82-2.21,2.78-4,2.78-5.46a3.11,3.11,0,0,0-3.42-3.3,3.26,3.26,0,0,0-3.37,3.22h-3.25c0-3.72,2.67-6.13,6.91-6.13,4,0,6.47,2.21,6.47,5.75,0,3.25-2.06,5.83-5.22,9.45l-2.64,3h7.89Z"/><path class="cls-1" d="M195.5,128.28c-4.64,0-7.45-3.86-7.45-10.76s2.84-10.74,7.48-10.74,7.43,3.83,7.43,11C203,124.42,200.09,128.28,195.5,128.28Zm4.09-10.79c0-5.14-1.42-7.83-4-7.83s-4.15,2.67-4.15,7.89,1.48,7.83,4,7.83C198.2,125.38,199.59,122.74,199.59,117.49Z"/><path class="cls-1" d="M209.44,109.86h-4.3l1.31-2.67h6.06v20.54h-3.07Z"/><path class="cls-1" d="M224,120.56c-3.66,0-6.38-2.69-6.38-6.67,0-4.26,2.93-7.11,7.34-7.11a6.51,6.51,0,0,1,6.87,6.91c0,3.48-2.12,6.29-4.9,10.21L223.3,129l-2.55-1.3,6-7.81A6.07,6.07,0,0,1,224,120.56Zm.9-11a3.76,3.76,0,0,0-4,4.12c0,2.58,1.45,4.18,3.94,4.18,2.21,0,3.74-1.72,3.74-4.18S227.08,109.54,224.93,109.54Z"/><path class="cls-1" d="M241.78,119.63v2.85h-7.57v-2.85Z"/><path class="cls-1" d="M256.45,127.73h-13.9l7.75-9.28c1.82-2.21,2.78-4,2.78-5.46a3.1,3.1,0,0,0-3.42-3.3,3.26,3.26,0,0,0-3.37,3.22h-3.24c0-3.72,2.66-6.13,6.9-6.13,4,0,6.47,2.21,6.47,5.75,0,3.25-2.06,5.83-5.22,9.45l-2.64,3h7.89Z"/><path class="cls-1" d="M266.82,128.28c-4.64,0-7.45-3.86-7.45-10.76s2.84-10.74,7.48-10.74,7.43,3.83,7.43,11C274.28,124.42,271.41,128.28,266.82,128.28Zm4.09-10.79c0-5.14-1.42-7.83-4-7.83s-4.15,2.67-4.15,7.89,1.48,7.83,4,7.83C269.52,125.38,270.91,122.74,270.91,117.49Z"/><path class="cls-1" d="M289.38,127.73H275.49l7.74-9.28c1.83-2.21,2.79-4,2.79-5.46a3.11,3.11,0,0,0-3.43-3.3,3.25,3.25,0,0,0-3.36,3.22H276c0-3.72,2.67-6.13,6.9-6.13,4,0,6.47,2.21,6.47,5.75,0,3.25-2.06,5.83-5.22,9.45l-2.64,3h7.89Z"/><path class="cls-1" d="M299.76,128.28c-4.64,0-7.46-3.86-7.46-10.76s2.85-10.74,7.49-10.74,7.42,3.83,7.42,11C307.21,124.42,304.34,128.28,299.76,128.28Zm4.09-10.79c0-5.14-1.42-7.83-4-7.83s-4.15,2.67-4.15,7.89,1.48,7.83,4,7.83C302.46,125.38,303.85,122.74,303.85,117.49Z"/></g></g></svg>