<svg id="图层_1" data-name="图层 1" xmlns="http://www.w3.org/2000/svg" viewBox="0 0 3200 1000"><defs><style>.cls-1{fill:#26477e;}.cls-1,.cls-2{fill-rule:evenodd;}.cls-2{fill:#3f97c6;}.cls-3{fill:#fff;}</style></defs><title>Huawei_P30_Pro_Mobile</title><polygon class="cls-1" points="1200 0 0 0 0 1000 1200 1000 1200 0 1200 0"></polygon><polygon class="cls-2" points="3200 0 1220 0 1220 700 3200 700 3200 0 3200 0"></polygon><polygon class="cls-3" points="2190.45 409.07 2254.36 568.59 2318.28 409.07 2351.72 409.07 2351.72 604.58 2325.93 604.58 2325.93 528.44 2328.35 446.26 2264.17 604.58 2244.43 604.58 2180.38 446.67 2182.93 528.44 2182.93 604.58 2157.15 604.58 2157.15 409.07 2190.45 409.07 2190.45 409.07"></polygon><path class="cls-3" d="M1347.63,313.14q0,28.73-9.67,50.15T1310.56,396q-17.71,11.28-41.35,11.28-23.1,0-41-11.34t-27.73-32.36q-9.87-21-10.13-48.68v-14.1q0-28.2,9.8-49.81t27.73-33.1q17.92-11.49,41-11.48,23.49,0,41.42,11.34t27.6,32.9q9.66,21.56,9.67,50.15v12.36ZM1322,300.51q0-34.77-14-53.37t-39.07-18.6q-24.43,0-38.47,18.6T1216,298.77v14.37q0,33.69,14.17,53t39,19.27q25,0,38.67-18.2T1322,315v-14.5Z" transform="translate(1200 200)"></path><path class="cls-3" d="M1386.3,404.58V209.07h63.91q31.83,0,47.87,13.16t16.05,38.94a39.74,39.74,0,0,1-7.79,24.24,50.44,50.44,0,0,1-21.21,16.31q15.84,4.44,25,16.85t9.2,29.61q0,26.32-17.06,41.36t-48.2,15Zm25.78-91.44V383.5h42.57q18,0,28.39-9.33t10.41-25.72q0-35.31-38.4-35.31Zm0-20.68H1451q16.92,0,27.06-8.46t10.13-23q0-16.13-9.4-23.44t-28.6-7.31h-38.13v62.17Z" transform="translate(1200 200)"></path><polygon class="cls-3" points="2785.16 604.58 2759.38 604.58 2759.38 409.07 2785.16 409.07 2785.16 604.58 2785.16 604.58"></polygon><polygon class="cls-3" points="2858.21 583.5 2950.86 583.5 2950.86 604.58 2832.29 604.58 2832.29 409.07 2858.21 409.07 2858.21 583.5 2858.21 583.5"></polygon><polygon class="cls-3" points="3090.78 514.21 3006.05 514.21 3006.05 583.5 3104.47 583.5 3104.47 604.58 2980.27 604.58 2980.27 409.07 3103.13 409.07 3103.13 430.29 3006.05 430.29 3006.05 493.13 3090.78 493.13 3090.78 514.21 3090.78 514.21"></polygon><polygon class="cls-1" points="3200 720 1220 720 1220 1000 3200 1000 3200 720 3200 720"></polygon><path class="cls-3" d="M442.08-107.84c72.78,0,106.47,53.91,107.07,108.44,1.2,55.77-32.48,112.16-107.07,112.16H360.89v-220.6ZM395.17,78.68h46.92c52.32,0,74-39.66,73.37-78.08-1.2-37.18-22.85-74.36-73.37-74.36H395.17V78.68Z" transform="translate(1200 200)"></path><polygon class="cls-3" points="1910.34 92.16 1947.63 92.16 1947.63 94.02 1875.45 201.22 1950.64 312.14 1950.64 313.38 1912.14 313.38 1854.4 226.01 1796.06 313.38 1757.57 313.38 1757.57 312.14 1832.75 201.22 1759.97 94.02 1759.97 92.16 1797.26 92.16 1853.8 177.68 1910.34 92.16 1910.34 92.16"></polygon><path class="cls-3" d="M977.39,3.08c0,59.49-34.89,114-109.47,114-74,0-109.46-55.77-109.46-113.4,0-66.92,45.71-115.26,110.06-115.26,73.38,0,108.87,55.15,108.87,114.64ZM867.92,84.88c52.93,0,75.19-38.42,75.19-80.56,0-40.28-22.86-83-74.58-83.65-49.33,0-75.79,35.32-75.79,83.65.6,38.42,22.25,80.56,75.18,80.56Z" transform="translate(1200 200)"></path><path class="cls-3" d="M1199.33-56.41,1126.55,47.7h-7.21L1047.16-56.41V112.76h-34.28v-220h39.69L1123-3.73l70.37-103.49H1233v220h-34.28V-56.41Z" transform="translate(1200 200)"></path><path class="cls-3" d="M1435.11,66.29H1319.62l-20.45,46.47h-36.08l95.63-220H1396l95.63,220h-36.08l-20.45-46.47ZM1377.36-70.66l-45.1,104.73h90.22L1377.37-70.66Z" transform="translate(1200 200)"></path><path class="cls-3" d="M1705.77,112.14h-40.3l-64.36-75.6H1556v76.22h-34.28v-220.6c33.08,0,66.16.62,99.24.62,49.32,0,75.18,34.7,75.18,71.88,0,31.61-15.64,62.59-57.74,68.78l63.76,73.13,3.61,5.57ZM1556-75.62V4.32h65c28.27,0,40.9-18.59,40.9-39,0-19.83-12.63-40.28-40.9-40.28h-65v-.62Z" transform="translate(1200 200)"></path><polygon class="cls-3" points="3105.45 93.4 3007.41 198.74 3113.87 310.29 3113.87 312.76 3071.17 312.76 2976.14 212.38 2976.14 312.76 2941.85 312.76 2941.85 92.16 2976.14 92.16 2976.14 186.97 3063.35 92.16 3106.05 92.16 3106.05 93.4 3105.45 93.4 3105.45 93.4"></polygon><polygon class="cls-3" points="2173.99 905.41 2160.33 905.41 2160.33 857.76 2108.36 857.76 2108.36 905.41 2094.77 905.41 2094.77 802.32 2108.36 802.32 2108.36 846.64 2160.33 846.64 2160.33 802.32 2173.99 802.32 2173.99 905.41 2173.99 905.41"></polygon><path class="cls-3" d="M1043.38,697.83q-7.65,9-22.45,9-12.24,0-18.65-7.11t-6.48-21.07V628.8h13.1v49.49q0,17.41,14.16,17.42,15,0,20-11.19V628.8h13.1v76.61h-12.46l-.28-7.58Z" transform="translate(1200 200)"></path><path class="cls-3" d="M1123.31,705.41c-.75-1.51-1.37-4.2-1.84-8.07a29.24,29.24,0,0,1-21.81,9.48q-11.33,0-18.58-6.4a20.74,20.74,0,0,1-7.26-16.25q0-12,9.1-18.59t25.59-6.62h12.75v-6q0-6.86-4.11-10.93t-12.1-4.08a19.12,19.12,0,0,0-11.76,3.54q-4.74,3.54-4.74,8.57h-13.17a18.1,18.1,0,0,1,4.07-11.08,27.9,27.9,0,0,1,11-8.46,37.07,37.07,0,0,1,15.32-3.12q13.25,0,20.75,6.62t7.79,18.24v35.25q0,10.56,2.69,16.78v1.14Zm-21.73-10a23.06,23.06,0,0,0,11.68-3.18,19.31,19.31,0,0,0,8-8.29V668.24H1111q-24.08,0-24.07,14.09,0,6.15,4.11,9.63a15.77,15.77,0,0,0,10.55,3.46Z" transform="translate(1200 200)"></path><polygon class="cls-3" points="2422.72 887.35 2437.44 828.8 2450.54 828.8 2428.24 905.41 2417.62 905.41 2399 847.35 2380.87 905.41 2370.25 905.41 2348.02 828.8 2361.05 828.8 2376.13 886.15 2393.97 828.8 2404.52 828.8 2422.72 887.35 2422.72 887.35"></polygon><path class="cls-3" d="M1295.64,706.82q-15.57,0-25.35-10.23t-9.77-27.36v-2.41a46,46,0,0,1,4.36-20.35,33.84,33.84,0,0,1,12.18-14,30.55,30.55,0,0,1,17-5.07q14.94,0,23.23,9.85t8.28,28.17v5.46h-51.9q.29,11.32,6.62,18.3a20.81,20.81,0,0,0,16.11,7,22.8,22.8,0,0,0,11.75-2.83,29.56,29.56,0,0,0,8.43-7.51l8,6.24q-9.63,14.79-28.89,14.79ZM1294,638.15a17.47,17.47,0,0,0-13.31,5.77q-5.39,5.76-6.65,16.17h38.37v-1q-.57-10-5.38-15.47t-13-5.48Z" transform="translate(1200 200)"></path><path class="cls-3" d="M1354.9,705.41h-13.1V628.8h13.1v76.61Zm-14.16-96.93a7.81,7.81,0,0,1,2-5.38,7.32,7.32,0,0,1,5.77-2.2,7.42,7.42,0,0,1,5.8,2.2,7.75,7.75,0,0,1,2,5.38,7.76,7.76,0,1,1-15.51,0Z" transform="translate(1200 200)"></path><path class="cls-3" d="M1427.4,665.05v40.36h-13.59V602.32h38q16.92,0,26.51,8.64t9.6,22.87q0,15-9.39,23.11t-26.86,8.11Zm0-11.11h24.43q10.9,0,16.71-5.14t5.8-14.83q0-9.21-5.8-14.73t-15.93-5.73H1427.4v40.42Z" transform="translate(1200 200)"></path><path class="cls-3" d="M1520.93,647.49h9.84q9.27-.13,14.58-4.88t5.32-12.82q0-18.12-18.06-18.12-8.49,0-13.56,4.85T1514,629.37h-13.1a26.31,26.31,0,0,1,9-20.36q9-8.1,22.76-8.11,14.58,0,22.87,7.72t8.28,21.45a22.64,22.64,0,0,1-4.35,13,26.33,26.33,0,0,1-11.86,9.42,25.33,25.33,0,0,1,13.13,8.92,24.72,24.72,0,0,1,4.64,15.22q0,13.88-9.06,22t-23.58,8.14q-14.51,0-23.61-7.86t-9.1-20.74h13.17q0,8.14,5.31,13t14.23,4.88q9.49,0,14.52-5t5-14.23q0-9-5.52-13.81t-15.93-5h-9.84V647.49Z" transform="translate(1200 200)"></path><path class="cls-3" d="M1648,661.44q0,23-7.86,34.2t-24.57,11.18q-16.5,0-24.43-10.94t-8.21-32.67V645.72q0-22.72,7.86-33.77t24.64-11.05q16.63,0,24.49,10.66t8.08,32.89v17Zm-13.1-17.91q0-16.65-4.68-24.25t-14.79-7.61q-10.07,0-14.66,7.57t-4.74,23.3v21q0,16.71,4.85,24.68t14.69,8q9.69,0,14.41-7.5t4.92-23.65V643.53Z" transform="translate(1200 200)"></path><path class="cls-3" d="M1717.61,665.05v40.36H1704V602.32h38q16.92,0,26.51,8.64t9.6,22.87q0,15-9.38,23.11t-26.87,8.11Zm0-11.11H1742q10.9,0,16.71-5.14t5.8-14.83q0-9.21-5.8-14.73t-15.93-5.73h-25.21v40.42Z" transform="translate(1200 200)"></path><path class="cls-3" d="M1830.47,640.55a39.29,39.29,0,0,0-6.44-.49q-12.88,0-17.49,11v54.38h-13.1V628.8h12.75l.21,8.85q6.43-10.26,18.26-10.27a13.24,13.24,0,0,1,5.81,1v12.17Z" transform="translate(1200 200)"></path><path class="cls-3" d="M1837.62,666.4a45.23,45.23,0,0,1,4.43-20.25,33,33,0,0,1,12.32-13.88,33.47,33.47,0,0,1,18-4.89q15.64,0,25.32,10.84t9.66,28.81V668a45.69,45.69,0,0,1-4.28,20.07,32.58,32.58,0,0,1-12.25,13.85,34,34,0,0,1-18.3,5q-15.58,0-25.24-10.83t-9.67-28.67v-.92Zm13.17,1.55q0,12.75,5.91,20.47a20,20,0,0,0,31.69-.11q5.86-7.83,5.87-21.91,0-12.61-6-20.43a19,19,0,0,0-15.9-7.82,18.8,18.8,0,0,0-15.64,7.71q-6,7.73-6,22.09Z" transform="translate(1200 200)"></path><polygon class="cls-3" points="299.6 701.02 244.65 701.02 244.65 336.78 134.46 377.25 134.46 327.62 291.03 268.83 299.6 268.83 299.6 701.02 299.6 701.02"></polygon><polygon class="cls-3" points="639.32 701.02 584.37 701.02 584.37 336.78 474.18 377.25 474.18 327.62 630.75 268.83 639.32 268.83 639.32 701.02 639.32 701.02"></polygon><path class="cls-3" d="M-118.75,501H-400.57V461.73L-251.68,296.3q33.08-37.51,45.64-61a101.83,101.83,0,0,0,12.55-48.6q0-33.67-20.38-55.24t-54.36-21.56q-40.77,0-63.36,23.19t-22.6,64.54h-54.65q0-59.37,38.25-96T-268.23,65q60,0,94.83,31.47t34.86,83.74q0,63.53-80.94,151.25l-115.22,125h216V501Z" transform="translate(1200 200)"></path></svg>