<svg xmlns="http://www.w3.org/2000/svg" viewBox="0 0 509.41 244.13"><defs><style>.cls-1,.cls-5{fill:#fff;}.cls-1,.cls-2,.cls-3{fill-rule:evenodd;}.cls-3{fill:red;}.cls-4{fill:#fdcd06;}</style></defs><title>3</title><g id="图层_2" data-name="图层 2"><g id="Layer_1" data-name="Layer 1"><path d="M509.41,0H0V244.13H509.41V0Z"/><path class="cls-1" d="M209,32.58v73.1h14.85V92.09a22.84,22.84,0,0,1,0-4.53c.15-.61.88-1,1.43-1.6a62.83,62.83,0,0,1,4.45-4.7c4.63,8.13,9,16.47,13.85,24.42h17.12c-6.71-12.15-13.59-24.12-20.4-36.17,5.77-6.56,12.13-13.13,18-19.55.34-.38,1-1,.84-1.35H245.77c-1.36,0-3.26-.34-4.37,0-.7.22-1.68,1.58-2.35,2.35L225,67.41c-.34.4-.77,1-1.09.93-.11-13.35.23-27.1-.17-40.12C218.86,29.73,213.85,31.07,209,32.58Z"/><path class="cls-1" d="M390,28.39c-4.79,1.19-9.86,2.84-14.85,4.11v9.15H390Z"/><path class="cls-1" d="M455.09,32.58c-.06,5.37.11,11-.09,16.2h-7.8V59.27c2.63.06,5.48-.11,8,.09V90.24c0,5.82.43,9.38,3.28,12.17,4.23,4.15,14.67,4.88,22.66,3.36V93.6c-3.48.44-8.63,1.19-10.16-1.51-1-1.77-.75-4.73-.75-7.64V59.27c2.88-.05,6,.11,8.72-.08a94.92,94.92,0,0,0-.08-10.41c-2.85-.06-5.93.11-8.64-.08-.06-6.75.11-13.71-.09-20.31C465.28,29.63,460.05,31.19,455.09,32.58Z"/><path class="cls-1" d="M318.37,32.58v16.2h-7.81c-.19,3.3,0,7-.08,10.41,2.49.19,5.34,0,8,.08V84.2c0,4.36-.44,8.42.25,12.17a10.68,10.68,0,0,0,4.95,7.55c4.66,2.8,14,3.09,20.82,1.85-.06-4,.11-8.28-.08-12.17-3.67.48-8.78,1.2-10.24-1.76-.92-1.85-.68-4.73-.68-7.64,0-8.39-.06-17.41.09-25h8.64V48.78h-8.73c-.13-6.31.18-13.09,0-19.3,0-.28.22-1-.25-1.09Q325.78,30.48,318.37,32.58Z"/><path class="cls-1" d="M354.71,32.58v73.1h14.85c.05-25.54.35-52.07-.16-77.29C364.5,29.79,359.56,31.14,354.71,32.58Z"/><path class="cls-2" d="M113.08,37.37c-.89,2-.51,5.76-.51,8.14V62.88c0,3-.27,6.47.51,8.23a5.37,5.37,0,0,0,9.9-.34,11.62,11.62,0,0,0,.33-3.94V45.42c0-3,.25-6.37-.5-8.05a5.43,5.43,0,0,0-5.79-3A5.26,5.26,0,0,0,113.08,37.37Z"/><path class="cls-1" d="M445.94,85.88c0-6.72.31-13.48-.17-19.56s-2-11-5.37-14.35c-3.18-3.18-8.31-5.1-14.94-4.78a19,19,0,0,0-15,7.72,6.34,6.34,0,0,1-1.51,1.76V48.86c-4.58-.15-9.69-.12-14.27,0v56.82H409.6V80c0-8.75.24-16.87,6.21-19.47a13.26,13.26,0,0,1,9.65-.25c6.18,2.63,5.37,11.76,5.37,20.65,0,8.24,0,16.62.09,24.67,4.81.12,10.33.21,15-.08Z"/><path class="cls-1" d="M196.08,52.73c-4.11-3.43-10.14-5.87-17.88-5.46-11.8.63-19.07,7.77-22.32,17a42.27,42.27,0,0,0-1.93,17,29.19,29.19,0,0,0,5.12,14.43c5.16,7.33,15.32,12.6,27.78,9.4,10-2.58,15.72-10.67,17-22H190.54c-1,5.53-3.13,9.39-7.64,10.83a10.29,10.29,0,0,1-12.5-5c-4.61-8.31-3.19-23.53,3.36-28.28a9.14,9.14,0,0,1,4.86-1.85c7.3-.56,10.34,3.78,11.42,9.57h13.6C203.2,61.14,200.41,56.33,196.08,52.73Z"/><path class="cls-2" d="M97.8,50.79a31.66,31.66,0,0,0-3.19,3.36,30,30,0,0,0-7.55,18.47A32.49,32.49,0,0,0,88.32,84.2,31.52,31.52,0,0,0,98.81,99.73a30.28,30.28,0,0,0,19.3,6.71,29.08,29.08,0,0,0,10.83-2.18,31.2,31.2,0,0,0,19.72-32c-.89-10-5.06-16.6-10.91-21.57a10.84,10.84,0,0,0-3.94-2.6c-4.82-1.23-7.93,3.88-6.21,7.64A6.39,6.39,0,0,0,129.69,58c5.37,4.13,10.29,12.18,7.89,21.82a20.81,20.81,0,0,1-6.71,10.92A19.86,19.86,0,0,1,118,95.53a19.3,19.3,0,0,1-12.93-4.7,20.16,20.16,0,0,1-6.88-10.74,21,21,0,0,1,5.37-19.89c1.37-1.38,3.55-2.51,4.45-4.37a5.36,5.36,0,0,0-5.29-7.8C100.64,48.27,99.18,49.59,97.8,50.79Z"/><path class="cls-1" d="M375.19,49v56.65H390V48.78H375.27C375.17,48.79,375.18,48.91,375.19,49Z"/><path class="cls-1" d="M338,69.76V79h13.43V69.51H338.09C338,69.53,338,69.64,338,69.76Z"/><path class="cls-3" d="M117,34.34a5.43,5.43,0,0,1,5.79,3c.75,1.68.5,5,.5,8.05V66.83a11.62,11.62,0,0,1-.33,3.94,5.37,5.37,0,0,1-9.9.34c-.78-1.76-.51-5.2-.51-8.23V45.51c0-2.38-.38-6.13.51-8.14A5.26,5.26,0,0,1,117,34.34Z"/><path class="cls-1" d="M85.63,46.09A21.81,21.81,0,0,0,79,34c-3.43-3.22-7.4-4.93-13.43-5.37C54,27.8,41.1,28.41,28.39,28.22c-.1,0-.09.13-.08.25V106c4.89.14,10.38.14,15.27,0,.25-9.15-.08-18.88.17-28,6.49-.06,12.79.15,18.46-.25,5.85-.42,10.56-1.57,14.52-4.28C83.81,68.61,88,58.38,85.63,46.09ZM70,56.42a10.36,10.36,0,0,1-6.71,7c-5.45,1.7-12.27.57-19.56.93.11-7.39-.22-15.26.17-22.5,4.21,0,9.62-.06,14,.09s7.92,1.28,10,3.69A12.22,12.22,0,0,1,70,56.42Z"/><path class="cls-3" d="M102.75,48a5.36,5.36,0,0,1,5.29,7.8c-.9,1.86-3.08,3-4.45,4.37a21,21,0,0,0-5.37,19.89,20.16,20.16,0,0,0,6.88,10.74A19.3,19.3,0,0,0,118,95.53a19.86,19.86,0,0,0,12.84-4.78,20.81,20.81,0,0,0,6.71-10.92c2.4-9.64-2.52-17.69-7.89-21.82a6.39,6.39,0,0,1-2.09-2.26c-1.72-3.76,1.39-8.87,6.21-7.64a10.84,10.84,0,0,1,3.94,2.6c5.85,5,10,11.57,10.91,21.57a31.2,31.2,0,0,1-19.72,32,29.08,29.08,0,0,1-10.83,2.18,30.28,30.28,0,0,1-19.3-6.71A31.52,31.52,0,0,1,88.32,84.2a32.49,32.49,0,0,1-1.26-11.58,30,30,0,0,1,7.55-18.47,31.66,31.66,0,0,1,3.19-3.36C99.18,49.59,100.64,48.27,102.75,48Z"/><path class="cls-1" d="M304.43,56.5c-4.21-5.5-11.22-10-21.15-9.48-12.08.57-20.2,7-24.17,15.69a35.06,35.06,0,0,0-2.85,16.79,30.59,30.59,0,0,0,4.78,15c5.17,8,15.22,13,27.78,11.33,11.46-1.53,17.77-8.3,21-18.63h-13.1c-2.2,5.72-10,8.74-17.29,6.46-5.42-1.68-8-6.8-8.05-13.34h39.44C311.47,70.28,308.86,62.28,304.43,56.5Zm-33.06,14c.62-6.81,4.32-11.34,11.08-11.84,8.6-.63,12.17,4.52,13.26,11.84Z"/><path class="cls-4" d="M85,141.64,67.47,154.38l6.73,20.68L56.65,162.29l-17.6,12.77,6.74-20.68L28.3,141.64H49.91l6.74-20.58,6.7,20.58Z"/><path class="cls-4" d="M481.11,141.64l-17.52,12.74,6.73,20.68-17.56-12.77-17.59,12.77,6.73-20.68-17.48-12.74H446l6.73-20.58,6.7,20.58Z"/><path class="cls-4" d="M382.08,141.64l-17.52,12.74,6.73,20.68-17.56-12.77-17.59,12.77,6.73-20.68-17.48-12.74H347l6.73-20.58,6.7,20.58Z"/><path class="cls-4" d="M184,141.64,166.5,154.38l6.73,20.68-17.55-12.77-17.6,12.77,6.74-20.68-17.49-12.74h21.61l6.74-20.58,6.7,20.58Z"/><path class="cls-4" d="M283.05,141.64l-17.52,12.74,6.73,20.68L254.7,162.29l-17.59,12.77,6.74-20.68-17.49-12.74H248l6.73-20.58,6.7,20.58Z"/><path class="cls-5" d="M97.48,226H79.57V193.88H97.48v3.32H83.31v10.35H96.63v3.3H83.31v11.82H97.48Z"/><path class="cls-5" d="M129.07,209.64q0,8-4.31,12.16T112.33,226h-8.9V193.88h9.85q7.48,0,11.64,4.16T129.07,209.64Zm-3.95.13q0-6.28-3.15-9.47t-9.38-3.19h-5.42v25.67h4.55q6.68,0,10-3.29T125.12,209.77Z"/><path class="cls-5" d="M135.48,226V193.88h3.74V226Z"/><path class="cls-5" d="M157.75,226H154V197.2H143.84v-3.32h24.09v3.32H157.75Z"/><path class="cls-5" d="M199.26,209.9q0,7.71-3.9,12.13t-10.84,4.42q-7.1,0-11-4.34t-3.85-12.25q0-7.85,3.87-12.16c2.57-2.88,6.24-4.32,11-4.32s8.22,1.46,10.81,4.39S199.26,204.75,199.26,209.9Zm-25.6,0q0,6.53,2.78,9.9t8.08,3.37q5.34,0,8.06-3.36t2.73-9.91q0-6.48-2.72-9.83c-1.81-2.23-4.48-3.35-8-3.35s-6.26,1.12-8.12,3.37S173.66,205.61,173.66,209.9Z"/><path class="cls-5" d="M209.52,212.65V226h-3.74V193.88h8.81q5.91,0,8.74,2.27t2.82,6.81q0,6.38-6.46,8.61L228.41,226H224l-7.78-13.36Zm0-3.21h5.12c2.63,0,4.57-.52,5.8-1.57a5.85,5.85,0,0,0,1.84-4.71c0-2.13-.62-3.66-1.88-4.6s-3.26-1.4-6-1.4h-4.85Z"/><path class="cls-5" d="M237,193.88l.32.49c-.38,1.46-.93,3.17-1.64,5.11s-1.47,3.74-2.24,5.41h-2.68q1.53-6.25,2.24-11Z"/><path class="cls-5" d="M261.11,217.46a7.9,7.9,0,0,1-3.07,6.62c-2.05,1.58-4.84,2.37-8.35,2.37q-5.72,0-8.79-1.47v-3.61a23.67,23.67,0,0,0,8.92,1.8,9.31,9.31,0,0,0,5.62-1.41,4.66,4.66,0,0,0,1.89-3.95,5,5,0,0,0-.67-2.73,6.15,6.15,0,0,0-2.24-2,30.93,30.93,0,0,0-4.78-2,15.33,15.33,0,0,1-6.4-3.8,8.42,8.42,0,0,1-1.92-5.74,7.15,7.15,0,0,1,2.79-5.91,11.62,11.62,0,0,1,7.38-2.2,21.79,21.79,0,0,1,8.81,1.76l-1.16,3.25a20,20,0,0,0-7.74-1.67,7.45,7.45,0,0,0-4.63,1.28,4.19,4.19,0,0,0-1.67,3.54,5.41,5.41,0,0,0,.61,2.73,5.82,5.82,0,0,0,2.08,2,26,26,0,0,0,4.47,2q5.06,1.8,6.95,3.87A7.59,7.59,0,0,1,261.11,217.46Z"/><path class="cls-5" d="M293.13,196.76a10.5,10.5,0,0,0-8.36,3.53q-3.07,3.53-3.07,9.66,0,6.3,3,9.74t8.42,3.44a28.62,28.62,0,0,0,7.67-1.21v3.28a23.7,23.7,0,0,1-8.24,1.25q-7.1,0-10.95-4.31T277.7,209.9a19.28,19.28,0,0,1,1.86-8.7,13.34,13.34,0,0,1,5.36-5.76,16.32,16.32,0,0,1,8.25-2,19.87,19.87,0,0,1,8.83,1.85l-1.58,3.21A16.91,16.91,0,0,0,293.13,196.76Z"/><path class="cls-5" d="M331.47,226h-3.74V210.89H310.81V226h-3.73V193.88h3.73v13.67h16.92V193.88h3.74Z"/><path class="cls-5" d="M367.54,209.9q0,7.71-3.9,12.13t-10.84,4.42q-7.1,0-11-4.34T338,209.86q0-7.85,3.87-12.16c2.57-2.88,6.24-4.32,11-4.32s8.22,1.46,10.81,4.39S367.54,204.75,367.54,209.9Zm-25.6,0q0,6.53,2.78,9.9c1.85,2.25,4.55,3.37,8.08,3.37s6.24-1.12,8.06-3.36,2.73-5.54,2.73-9.91-.91-7.6-2.72-9.83-4.48-3.35-8-3.35-6.27,1.12-8.12,3.37S341.94,205.61,341.94,209.9Z"/><path class="cls-5" d="M374,226V193.88h3.74V226Z"/><path class="cls-5" d="M399.69,196.76a10.5,10.5,0,0,0-8.36,3.53q-3.06,3.53-3.06,9.66,0,6.3,3,9.74t8.43,3.44a28.67,28.67,0,0,0,7.67-1.21v3.28a23.78,23.78,0,0,1-8.24,1.25q-7.11,0-11-4.31t-3.85-12.24a19.28,19.28,0,0,1,1.85-8.7,13.4,13.4,0,0,1,5.36-5.76,16.33,16.33,0,0,1,8.26-2,19.93,19.93,0,0,1,8.83,1.85L407,198.48A17,17,0,0,0,399.69,196.76Z"/><path class="cls-5" d="M431.55,226H413.64V193.88h17.91v3.32H417.38v10.35h13.31v3.3H417.38v11.82h14.17Z"/></g></g></svg>