<?xml version="1.0" encoding="UTF-8"?>
<svg width="60px" height="60px" viewBox="0 0 60 60" version="1.1" xmlns="http://www.w3.org/2000/svg" xmlns:xlink="http://www.w3.org/1999/xlink">
    <!-- Generator: Sketch 52.5 (67469) - http://www.bohemiancoding.com/sketch -->
    <title>服务中心 copy 2</title>
    <desc>Created with Sketch.</desc>
    <g id="图标合集" stroke="none" stroke-width="1" fill="none" fill-rule="evenodd">
        <g id="服务官网图标" transform="translate(-367.000000, -350.000000)">
            <g id="服务中心" transform="translate(360.000000, 346.000000)">
                <g id="Group-5-Copy">
                    <g transform="translate(13.826000, 8.214000)" fill-rule="nonzero">
                        <g id="Group-4">
                            <path d="M41.981072,22.3681542 L45.15,22.3681542 C45.15,30.6559473 37.625,40.4443148 22.575,51.4504348 C7.525,40.4443148 0,30.6559473 0,22.3681542 L3.168928,22.3681542 C3.168928,29.078813 9.58640822,37.6668332 22.575,47.500902 C35.5635918,37.6668332 41.981072,29.078813 41.981072,22.3681542 Z" id="路径" fill="#020202"></path>
                            <path d="M3.168928,22.5095652 L0,22.5095652 C0,10.0778756 10.1071718,0 22.575,0 C35.0428282,0 45.15,10.0778756 45.15,22.5095652 L41.981072,22.5095652 C41.981072,11.8300887 33.2947335,3.168928 22.575,3.168928 C11.8552665,3.168928 3.168928,11.8300887 3.168928,22.5095652 Z" id="路径" fill="#030303"></path>
                            <path d="M22.575,26.5758546 C25.7249806,26.5758546 28.274822,24.0334041 28.274822,20.9017391 C28.274822,17.7700742 25.7249806,15.2276237 22.575,15.2276237 C19.4250194,15.2276237 16.875178,17.7700742 16.875178,20.9017391 C16.875178,24.0334041 19.4250194,26.5758546 22.575,26.5758546 Z M22.575,29.7447826 C17.6769246,29.7447826 13.70625,25.7856172 13.70625,20.9017391 C13.70625,16.0178611 17.6769246,12.0586957 22.575,12.0586957 C27.4730754,12.0586957 31.44375,16.0178611 31.44375,20.9017391 C31.44375,25.7856172 27.4730754,29.7447826 22.575,29.7447826 Z" id="Oval-6" fill="#020202"></path>
                        </g>
                    </g>
                </g>
            </g>
        </g>
    </g>
</svg>