<svg xmlns="http://www.w3.org/2000/svg" xmlns:xlink="http://www.w3.org/1999/xlink" viewBox="0 0 3371.05 3716.45"><defs><style>.cls-1{fill:url(#linear-gradient);}.cls-2,.cls-6{fill:none;}.cls-3{fill:#8a9398;}.cls-4{clip-path:url(#clip-path);}.cls-5{mask:url(#mask);}.cls-6{stroke:#8a9398;stroke-miterlimit:10;stroke-width:20px;}.cls-7{fill:#fff;}.cls-8{font-size:320px;letter-spacing:-0.02em;}.cls-14,.cls-8{font-family:Fieldwork-Geo-Regular, Fieldwork Geo-Regular;}.cls-9{letter-spacing:-0.03em;}.cls-10{letter-spacing:-0.03em;}.cls-11{letter-spacing:-0.04em;}.cls-12{letter-spacing:-0.03em;}.cls-13{letter-spacing:-0.02em;}.cls-14{font-size:192px;letter-spacing:-0.02em;}.cls-15{letter-spacing:-0.02em;}.cls-16{letter-spacing:-0.02em;}.cls-17{letter-spacing:-0.02em;}.cls-18{filter:url(#luminosity-noclip);}</style><linearGradient id="linear-gradient" x1="1866.37" y1="3046.88" x2="1925.42" y2="3046.88" gradientTransform="matrix(-55, 0, 0, 55, 106427.53, -166024.06)" gradientUnits="userSpaceOnUse"><stop offset="0" stop-color="#fff"/><stop offset="0.08" stop-color="#c2c2c2"/><stop offset="0.16" stop-color="#888"/><stop offset="0.24" stop-color="#575757"/><stop offset="0.32" stop-color="#313131"/><stop offset="0.39" stop-color="#161616"/><stop offset="0.45" stop-color="#060606"/><stop offset="0.5"/><stop offset="0.55" stop-color="#060606"/><stop offset="0.61" stop-color="#161616"/><stop offset="0.68" stop-color="#313131"/><stop offset="0.76" stop-color="#575757"/><stop offset="0.84" stop-color="#888"/><stop offset="0.92" stop-color="#c2c2c2"/><stop offset="1" stop-color="#fff"/></linearGradient><clipPath id="clip-path" transform="translate(-278.45)"><path class="cls-2" d="M531.27,1554.55c0,795.51,645,1440.55,1440.54,1440.55s1440.58-645,1440.58-1440.55S2767.39,114,1971.81,114,531.27,759,531.27,1554.55"/></clipPath><filter id="luminosity-noclip" x="0" y="54.93" width="4309" height="3777.73" filterUnits="userSpaceOnUse" color-interpolation-filters="sRGB"><feFlood flood-color="#fff" result="bg"/><feBlend in="SourceGraphic" in2="bg"/></filter><mask id="mask" x="-278.45" y="54.93" width="4309" height="3777.73" maskUnits="userSpaceOnUse"><g class="cls-18"><g transform="translate(-278.45)"><rect class="cls-1" x="531.27" y="113.96" width="2881.11" height="2881.15"/></g></g></mask></defs><title>资源 1</title><g id="图层_2" data-name="图层 2"><g id="Layer_1" data-name="Layer 1"><path class="cls-3" d="M1971.83,2995.1c795.64,0,1440.56-644.91,1440.56-1440.55S2767.47,113.93,1971.83,113.93,531.22,758.9,531.22,1554.55s645,1440.55,1440.61,1440.55" transform="translate(-278.45)"/><path class="cls-6" d="M1971.83,3099.08c853,0,1544.45-691.48,1544.45-1544.59S2824.8,10,1971.83,10,427.34,701.48,427.34,1554.49,1118.82,3099.08,1971.83,3099.08Z" transform="translate(-278.45)"/><polygon class="cls-7" points="1693.62 1362.66 1654.14 1484.69 1523.97 1484.69 1630.1 1563.6 1588.84 1688.86 1693.62 1611.67 1798.38 1688.86 1757.59 1563.6 1862.83 1484.69 1732.16 1484.69 1693.62 1362.66"/><polygon class="cls-7" points="1300.58 1362.66 1261.05 1484.69 1130.93 1484.69 1237.05 1563.6 1195.78 1688.86 1300.58 1611.67 1405.34 1688.86 1364.57 1563.6 1469.79 1484.69 1339.12 1484.69 1300.58 1362.66"/><polygon class="cls-7" points="2086.67 1362.66 2047.18 1484.69 1917.03 1484.69 2023.14 1563.6 1981.92 1688.86 2086.67 1611.67 2191.4 1688.86 2150.64 1563.6 2255.89 1484.69 2125.22 1484.69 2086.67 1362.66"/><polygon class="cls-7" points="2479.69 1362.66 2440.16 1484.69 2310.02 1484.69 2416.2 1563.6 2374.95 1688.86 2479.69 1611.67 2584.51 1688.86 2543.7 1563.6 2648.92 1484.69 2518.21 1484.69 2479.69 1362.66"/><polygon class="cls-7" points="907.49 1362.66 868.01 1484.69 737.86 1484.69 843.99 1563.6 802.74 1688.86 907.49 1611.67 1012.27 1688.86 971.48 1563.6 1076.75 1484.69 946.03 1484.69 907.49 1362.66"/><path class="cls-7" d="M2521.16,822.94c18-100.35-59.43-142.81-278.15-142.81-44.31,0-84,1.79-120,6.31l31-174.34h-734L1420,706.26l208.25.11-86.24,488h247.86l86.26-488h157.21c-64.25,22.55-106.25,60.55-121.23,121.12h212.4c16.48-20.87,26.17-26.22,94.84-26.22,78.61,0,88.26,18,84.6,39.71-2.89,18-15.92,34.36-61.12,34.36l-108.15.11L2114.1,992.14l98.63-.25c51.54,0,77.16,9.05,72,40.69-4.54,23.46-19.94,48.83-113,48.83-41.58,0-68.84-3.63-84.56-13.6-15.68-9-21.54-22.54-20.42-40.63H1858.85c-11.9,105.36,48.71,149.12,133.31,167.28h320.36c121.91-24.21,172.65-80.94,184.92-151.91,11.26-64.15-20.91-102.12-81-116.54l-.12-1.84c78-17.17,98.1-60.6,104.82-101.23" transform="translate(-278.45)"/><path class="cls-7" d="M2615.2,2598.26c100.16,0,172.33-67.1,172.33-163,0-102.49-72.17-163.05-172.33-163.05H2470.9v14c18.61,4.74,27.86,11.78,27.86,37.35V2547c0,25.61-9.25,32.65-27.86,37.23v14.07Zm-41.89-21V2293.21h37.31c68.83,0,97.7,55.81,97.7,142.06,0,73.53-27,142-93.12,142Zm-327.53-139.73V2293.21h27.94c37.28,0,48.86,34.94,48.86,72.17,0,41.06-11.58,72.17-58.18,72.17Zm153.63-76.79c0-51.26-37.23-88.54-107.07-88.54h-149v14c18.66,4.74,28,11.78,28,37.35V2547c0,25.61-9.29,32.65-28,37.23v14.07h130.39v-14.07c-18.61-4.58-27.94-11.62-27.94-37.23v-88.42h16.33L2311,2547c10.25,18.7,27.94,42,37.23,51.3h88.42v-14.07c-18.58-9.21-32.05-31.56-46.57-51.18l-55.8-83.35c49.33-16.25,65.13-54.08,65.13-88.9m-474.66-9.33-37.25,116.44h77.29l-39.1-116.44Zm151.8,204.86c7,15.36,11.62,21,34.94,27.9v14.07H1971.77v-14.07c23.26-4.58,25.63-17.61,18.66-41.82l-17.69-53.63h-92.22l-15.82,46.6c-9.33,28-4.66,44.27,32.61,48.85v14.07H1785.55v-14.07c27.9-4.58,40-8.85,46.52-27.9l97.81-286.36h39.6ZM1598.31,2314.2c-5.13-15.8-11.22-21-34-28v-14h135v14c-23.74,4.74-26.52,17.77-20,42l55.41,190.9h1l53-183.86c8.38-28.47,3.25-44.27-33.51-49v-14H1867v14c-28.38,4.74-40.49,8.88-47.46,28l-84.78,286.4h-41.89l-59.15-176.07-66.58,176.07h-39.61l-96.79-286.4c-6.56-15.44-11.22-21-34-28v-14h135v14c-23.73,4.74-26.48,17.77-20,42l62.4,190.9h.93l47.06-130.39Zm-316.89,37.23-37.27,116.44h77.33l-39.12-116.44Zm151.8,204.86c7,15.36,11.64,21,35,27.9v14.07H1328.46v-14.07c23.24-4.58,25.61-17.61,18.64-41.82l-17.7-53.63h-92.19l-15.84,46.6c-9.33,28-4.67,44.27,32.57,48.85v14.07H1142.18v-14.07c27.94-4.58,40.07-8.85,46.54-27.9l97.82-286.36h39.61Z" transform="translate(-278.45)"/><path class="cls-7" d="M3021.21,2053.18l-81.5-232.84H2816.36v14c37.23,4.62,41.85,11.58,41.85,37.23V2095c0,25.62-4.62,32.65-41.85,37.23v14h107.11v-14c-37.23-4.58-42-11.61-42-37.23V1880.81l95.45,267.74h37.28l81.5-239.8V2095c0,25.62-9.33,32.65-27.91,37.23v14h130.27v-14c-18.57-4.58-27.9-11.61-27.9-37.23V1871.52c0-25.65,9.33-32.61,27.9-37.23v-14h-97.66Zm-309.15-37.35c0,65.25-25.61,107.11-88.41,107.11-48.93,0-76.84-32.49-76.84-107.11V1871.52c0-25.65,9.29-32.61,27.91-37.23v-14h-130.4v14c18.62,4.62,27.95,11.58,27.95,37.23v149c0,80.57,46.56,130.39,137.43,130.39,75.87,0,128-46.56,128-130.39v-149c0-25.65,9.29-32.61,41.94-37.23v-14H2667.83v14c37.28,4.62,44.23,11.58,44.23,37.23Zm-367.29,18.69-135.09-214.18h-116.4v14c27.9,4.62,39.6,11.58,39.6,37.23V2095c0,25.62-11.7,32.65-39.6,37.23v14h107.07v-14c-37.23-4.58-41.9-11.61-41.9-37.23V1880.81l167.62,265.41h44.27v-274.7c0-25.65,11.66-32.61,39.56-37.23v-14H2302.8v14c37.23,4.62,42,11.58,42,37.23Zm-317.77-163c0-25.65,9.3-32.61,27.92-37.23v-14H1924.55v14c18.63,4.62,27.94,11.58,27.94,37.23V2095c0,25.62-9.31,32.65-27.94,37.23v14h130.37v-14c-18.62-4.58-27.92-11.61-27.92-37.23Zm-140.37-51.18,2.38,79.17h-16.33c-4.62-37.72-32.63-58.22-58.24-58.22h-18.59V2095c0,25.62,9.3,32.65,27.92,37.23v14H1693.4v-14c18.63-4.58,27.94-11.61,27.94-37.23V1841.29h-18.63c-25.64,0-53.54,20.5-58.2,58.22h-16.29l2.27-79.17Zm-441.83,79.17-37.29,116.32h77.34l-39.15-116.32Zm151.78,204.89c7,15.32,11.68,20.95,34.94,27.86v14h-139.7v-14c23.3-4.58,25.59-17.6,18.64-41.81l-17.73-53.64h-92.2l-15.8,46.6c-9.33,27.91-4.66,44.27,32.58,48.85v14H1305.56v-14c27.92-4.58,40-8.84,46.58-27.86L1449.9,1818h39.61Zm-465.38,20.95V1871.52c0-25.65,9.33-32.61,28-37.23v-14H1028.8v14c18.57,4.62,27.92,11.58,27.92,37.23V2095c0,25.62-9.35,32.65-27.92,37.23v14h246.79l4.66-79.09H1264c-4.64,37.71-34.94,58.22-60.56,58.22ZM875.87,2011.24c97.78,0,130.39-55.93,130.39-102.49,0-51.18-37.27-88.41-107.07-88.41H745.48v14c18.63,4.62,27.94,11.58,27.94,37.23V2095c0,25.62-9.31,32.65-27.94,37.23v14H875.87v-14c-18.6-4.58-27.94-11.61-27.94-37.23v-83.79Zm-27.94-21v-149h32.6c37.23,0,48.91,34.9,48.91,72.17,0,40.93-16.34,76.79-62.86,76.79Z" transform="translate(-278.45)"/><text class="cls-8" transform="translate(686.82 3456.42)">Hu<tspan class="cls-9" x="372.16" y="0">a</tspan><tspan class="cls-10" x="517.44" y="0">w</tspan><tspan x="743.35" y="0">ei P30 </tspan><tspan class="cls-11" x="1567.97" y="0">P</tspan><tspan class="cls-12" x="1726.7" y="0">r</tspan><tspan class="cls-13" x="1821.74" y="0">o</tspan></text><text class="cls-14" transform="translate(1295.49 3668.45)">A<tspan class="cls-15" x="113.09" y="0">p</tspan><tspan class="cls-16" x="218.49" y="0">r</tspan><tspan class="cls-17" x="278.21" y="0">il 2019</tspan></text></g></g></svg>