<svg xmlns="http://www.w3.org/2000/svg" viewBox="0 0 306.22 396.78"><defs><style>.cls-1{fill:none;stroke:#fff;stroke-width:1.35px;}.cls-2{fill:#fff;}.cls-3{fill:#caaf66;}</style></defs><title>资源 1</title><g id="图层_2" data-name="图层 2"><g id="图层_1-2" data-name="图层 1"><path d="M141.84,287.3c78.33,0,141.84-64.31,141.84-143.65S220.17,0,141.84,0,0,64.32,0,143.65,63.5,287.3,141.84,287.3Z"/><polygon points="60.17 96.24 18.63 162.61 18.63 396.78 306.22 396.78 306.22 64.42 95.76 64.42 60.17 96.24 60.17 96.24"/><polyline class="cls-1" points="23.05 217.07 23.05 392.35 300.76 392.35 300.76 70.28 269.22 70.28"/><path class="cls-2" d="M196.18,41.14c.06,5.92-2.34,11.65-5.88,16.38a45.05,45.05,0,0,1-13.44,11.65c-10.36,6.12-22.55,8.64-34.46,8.36a77.49,77.49,0,0,1-34.09-9A47.86,47.86,0,0,1,94.38,57.64c-3.84-4.52-6.69-10.24-6.82-16.53a26.33,26.33,0,0,1,6-17.18,44.5,44.5,0,0,1,14.09-11.5,73.25,73.25,0,0,1,34.82-8.25c11.91.12,24.12,2.67,34.46,8.86a45.59,45.59,0,0,1,13.44,11.69c3.54,4.74,5.93,10.48,5.85,16.41Zm-.49,0a23.35,23.35,0,0,0-6.41-15.55,41.81,41.81,0,0,0-13.87-9.7,81,81,0,0,0-33-6.51c-11.21.08-22.63,2.11-32.66,7.12a43.42,43.42,0,0,0-13.22,9.89c-3.56,4.14-6.12,9.21-6.29,14.78a23.47,23.47,0,0,0,5.44,15.43A40,40,0,0,0,109,67.12a58.76,58.76,0,0,0,16.33,5.22,81.93,81.93,0,0,0,17.06,1.14,87.46,87.46,0,0,0,33-7,42.2,42.2,0,0,0,13.87-9.75,23.21,23.21,0,0,0,6.38-15.58Z"/><path class="cls-2" d="M232.67,75.64a58.77,58.77,0,0,1-8.46,30,76.13,76.13,0,0,1-21.58,23c-17.36,12.43-39,18.17-60.24,17.85S100,139.94,82.6,128.05a78.78,78.78,0,0,1-22.18-22.3,64,64,0,0,1-6.75-14.37,55.17,55.17,0,0,1-2.61-15.77A56.77,56.77,0,0,1,59.51,45,75.67,75.67,0,0,1,81.77,22C99.55,9.88,121.08,4.11,142.44,4.18S185.33,10,202.67,22.54a76.75,76.75,0,0,1,21.58,23.08,58.64,58.64,0,0,1,8.42,30Zm-.48,0a53.23,53.23,0,0,0-2.38-15.35,55.46,55.46,0,0,0-6.71-14A73.16,73.16,0,0,0,200.89,25.2c-17.5-10.79-38-15.93-58.5-15.83s-41,5.19-58.07,16.4A74.33,74.33,0,0,0,62.79,47a55,55,0,0,0-9.07,28.66,53.47,53.47,0,0,0,8.16,29.18,71.07,71.07,0,0,0,21.6,21.9A93.32,93.32,0,0,0,111.81,139a115.4,115.4,0,0,0,30.62,3.47c20.46-.32,41-5.49,58.5-16.35A73.52,73.52,0,0,0,223.14,105a55.84,55.84,0,0,0,6.7-14,53.2,53.2,0,0,0,2.35-15.35Z"/><path class="cls-2" d="M89.43,192.68c-20.65-8.5-39-23.6-50.44-43.36s-15-44.08-8.93-66.15a92.23,92.23,0,0,1,15-30.4,110.28,110.28,0,0,1,24.1-23.5A128.44,128.44,0,0,1,131.55,5.89a125.56,125.56,0,0,1,66.2,10.92,115.73,115.73,0,0,1,28.41,18.78,100,100,0,0,1,21.1,26.86,88.17,88.17,0,0,1,7,66.6,91.82,91.82,0,0,1-15.49,30.1A101.85,101.85,0,0,1,214,181.9l-.28-.39C231.42,168,245.11,149.26,250.54,128a86.21,86.21,0,0,0-7.86-63.13c-10.3-19.13-27.26-34.41-46.9-44a128.87,128.87,0,0,0-64-12.4c-22,1.37-43.91,8.73-61.71,22S39,63,34,84.18a88.07,88.07,0,0,0,8.3,63.3c10.39,19.32,27.57,34.67,47.36,44.76l-.21.44Z"/><path class="cls-2" d="M23.61,212.18a136.08,136.08,0,0,1-1-136.84A143.26,143.26,0,0,1,140.5,5.46a132.33,132.33,0,0,1,69,16.65,136.42,136.42,0,0,1,65.42,82.67,141.4,141.4,0,0,1,5.17,35.5A135.8,135.8,0,0,1,263,208.83l-.43-.22a143.13,143.13,0,0,0,13.73-68.22,139.53,139.53,0,0,0-20-66A137.74,137.74,0,0,0,207.25,26.1a135.21,135.21,0,0,0-66.72-18A127,127,0,0,0,73.58,26.69C53.5,39,37.24,56.91,26.15,77.33A144.33,144.33,0,0,0,24,212l-.43.23Z"/><path class="cls-2" d="M181.37,26.16A263.46,263.46,0,0,0,152,35.61c-9.65,3.53-19,7.73-28.44,11.88s-18.71,8.57-27.85,13.3c-4.57,2.39-9.08,4.88-13.55,7.42s-8.78,5.37-12.93,8.4A142.25,142.25,0,0,0,46.39,97.08a95.91,95.91,0,0,0-16.54,25.49A78.63,78.63,0,0,0,25.17,137a80.74,80.74,0,0,0-2,15.1,109.39,109.39,0,0,0,3.34,30.45l-.23.07a95.29,95.29,0,0,1-5.07-30.57,83.14,83.14,0,0,1,1.59-15.56,80.61,80.61,0,0,1,4.74-14.94,90,90,0,0,1,17.24-26A134,134,0,0,1,68.65,75.77c4.3-2.87,8.67-5.64,13.15-8.19s8.93-5.17,13.43-7.68c9-5,18.08-10,27.47-14.31,18.75-8.58,38.24-16.08,58.62-19.67l.05.24Z"/><path class="cls-2" d="M73.06,41.33c11.78-3.44,24.19-4,36.38-4,6.11.07,12.21.29,18.3.49s12.19.36,18.31.92A190.07,190.07,0,0,1,182,46a187.68,187.68,0,0,1,33.92,13.81,132.2,132.2,0,0,1,29.84,21.38,107.92,107.92,0,0,1,22.07,29.46,91.9,91.9,0,0,1,5.06,71.67l-.23-.07a98.15,98.15,0,0,0,3.11-36,96.86,96.86,0,0,0-10.18-34.45,114.81,114.81,0,0,0-21.42-29A143.89,143.89,0,0,0,215.28,61a145.44,145.44,0,0,0-33.53-14.13,178.39,178.39,0,0,0-35.87-6.05c-6-.52-12.12-.51-18.22-.84s-12.17-.59-18.25-.74c-12.14-.37-24.36-.22-36.29,2.34l-.06-.23Z"/><path class="cls-2" d="M109.6,19A188.93,188.93,0,0,1,158.44,51.9a273.77,273.77,0,0,1,20.23,21.5c6.36,7.5,12.5,15.18,18.23,23.19a225.82,225.82,0,0,1,28,51.91A195.52,195.52,0,0,1,237.64,206l-.24,0a255.26,255.26,0,0,0-14.8-56.66,284.11,284.11,0,0,0-12-26.71q-6.75-13-14.78-25.34A199.76,199.76,0,0,0,178,74a224.59,224.59,0,0,0-20.95-20.56,279,279,0,0,0-47.6-34.19l.11-.21Z"/><path class="cls-2" d="M159.68,17c-7,5.49-12.4,12.58-17,20.06a158,158,0,0,0-11.58,23.71,176.61,176.61,0,0,0-12.74,51.35,307.09,307.09,0,0,0-.64,53c1.44,17.58,4.33,35.12,10.16,51.89l-.23.09c-7.26-16.27-10.91-34-12.43-51.77a214.85,214.85,0,0,1-.62-26.73A225.33,225.33,0,0,1,117.06,112c1.29-8.81,3-17.53,4.93-26.21a224,224,0,0,1,7.25-25.7,121.49,121.49,0,0,1,11.88-24C146,28.64,152,21.63,159.53,16.82l.15.2Z"/><polygon class="cls-3" points="219.88 281.54 225.83 265.21 247.39 265.21 232.52 224.36 211.71 281.54 192.72 281.54 219.48 208.03 245.57 208.03 272.32 281.54 219.88 281.54 219.88 281.54"/><polygon class="cls-3" points="43.53 224.37 104.49 224.37 104.49 208.03 43.53 208.03 43.53 224.37 43.53 224.37"/><polygon class="cls-3" points="83.51 232.53 64.52 232.53 64.52 281.54 83.51 281.54 83.51 232.53 83.51 232.53"/><path class="cls-3" d="M139.82,208v16.33h33.8a8.17,8.17,0,0,1,0,16.34h-33.8v40.84h19V257h17.47a24.51,24.51,0,0,0,0-49Z"/><polygon class="cls-3" points="131.65 208.03 112.66 208.03 112.66 281.54 131.65 281.54 131.65 208.03 131.65 208.03"/><path class="cls-3" d="M219.8,281.45l5.94-16.3h21.54l-14.85-40.74-20.79,57h-19l26.73-73.33h26.06l26.73,73.33Zm-176.18-57h60.9v-16.3H43.62v16.3Zm39.94,8.14h-19v48.89h19V232.56Zm56.26-24.44v16.29h33.77a8.15,8.15,0,1,1,0,16.3H139.82v40.74h19V257h17.45a24.45,24.45,0,1,0,0-48.89Zm-8.16,0h-19v73.33h19V208.12Z"/><path class="cls-3" d="M82.94,292l-4.61,23.18h-.1L73.87,292H63.81l-4.46,22.87h-.11L54.73,292H43.53l10.06,37H64.74l3.89-22.56h.11l4,22.56h11.1L94.2,292Zm29.46,37.91q8.4,0,13.59-5.42t5.18-14q0-8.56-5.18-14t-13.59-5.42q-8.4,0-13.59,5.42t-5.18,14q0,8.55,5.18,14t13.59,5.42Zm-4.75-27.59a8.09,8.09,0,0,1,2.34-1.5,6.41,6.41,0,0,1,4.82,0,7.92,7.92,0,0,1,2.33,1.5,7.41,7.41,0,0,1,1.9,3.17,17.93,17.93,0,0,1,0,10.06,7.31,7.31,0,0,1-1.9,3.16,8.17,8.17,0,0,1-2.33,1.51,6.54,6.54,0,0,1-4.82,0,8.35,8.35,0,0,1-2.34-1.51,7.3,7.3,0,0,1-1.89-3.16,17.93,17.93,0,0,1,0-10.06,7.4,7.4,0,0,1,1.89-3.17ZM145.33,329V316.12h6.07a4.86,4.86,0,0,1,2.23.47,4.67,4.67,0,0,1,1.42,1,4.25,4.25,0,0,1,.83,1.71,14.58,14.58,0,0,1,.44,1.86q.1.7.21,2.16a30,30,0,0,0,.93,5.7h11.41a5.66,5.66,0,0,1-.62-1.76,17.36,17.36,0,0,1-.34-2.1c0-.61-.11-1.4-.18-2.39s-.1-1.54-.1-1.68a14.45,14.45,0,0,0-1.71-5.92,7.25,7.25,0,0,0-3.74-3.31,7.58,7.58,0,0,0,4.13-3.58,11.65,11.65,0,0,0,1.42-5.71,9.43,9.43,0,0,0-3.47-7.8,13.38,13.38,0,0,0-8.61-2.78H133.92v37Zm5.34-28.21a7.81,7.81,0,0,1,4.38.91,3.16,3.16,0,0,1,1.27,2.77c0,2.46-1.67,3.68-5,3.68h-6v-7.36ZM198.07,329v-9.49H181.68V292H170.27v37Zm19.29,0q9.44,0,14.18-4.9t4.75-13.66a24.94,24.94,0,0,0-.91-6.85,19.27,19.27,0,0,0-2.8-5.83,13,13,0,0,0-5.21-4.23,18.12,18.12,0,0,0-7.78-1.56H200.87v37Zm-1.45-27.54a10.6,10.6,0,0,1,4.07.73,7.66,7.66,0,0,1,2.64,1.69,7.21,7.21,0,0,1,1.45,2.3,10,10,0,0,1,.68,2.26,12.45,12.45,0,0,1,.13,1.84,13.5,13.5,0,0,1-.31,3,12.59,12.59,0,0,1-1.09,2.93,5.6,5.6,0,0,1-2.52,2.43,9,9,0,0,1-4.22.91h-4.46V301.49Z"/><path class="cls-3" d="M59.78,350.73h.09l2.81,9.66H56.75l3-9.66Zm-6.54,20.86,1.4-4.48h10l1.32,4.48h10L64.52,340.24H55.08L43.53,371.59Zm53.65-31.35L103,359.87h-.08l-3.69-19.63H90.69L86.91,359.6h-.09L83,340.24H73.52L82,371.59h9.44l3.29-19.1h.09l3.38,19.1h9.4l8.78-31.35Zm23.36,10.49h.09l2.81,9.66h-5.93l3-9.66Zm-6.54,20.86,1.4-4.48h10l1.32,4.48h10L135,340.24h-9.44L114,371.59Zm32.75,0V360.66h5.14a4.15,4.15,0,0,1,3.1,1.25,3.83,3.83,0,0,1,.7,1.45,12.83,12.83,0,0,1,.37,1.58c.06.39.12,1,.18,1.82a23.89,23.89,0,0,0,.79,4.83h9.66a4.73,4.73,0,0,1-.53-1.49,15.12,15.12,0,0,1-.29-1.78c0-.51-.09-1.19-.15-2s-.09-1.31-.09-1.43a12,12,0,0,0-1.45-5,6,6,0,0,0-3.16-2.81,6.4,6.4,0,0,0,3.49-3,9.84,9.84,0,0,0,1.21-4.83,8,8,0,0,0-2.94-6.61,11.29,11.29,0,0,0-7.29-2.35H146.8v31.35ZM161,347.7a6.68,6.68,0,0,1,3.71.77,2.71,2.71,0,0,1,1.07,2.35q0,3.12-4.26,3.12h-5V347.7Zm30.56,23.89c5.32,0,9.33-1.38,12-4.15s4-6.62,4-11.57a21,21,0,0,0-.77-5.79,16,16,0,0,0-2.37-4.94,10.92,10.92,0,0,0-4.41-3.58,15.35,15.35,0,0,0-6.59-1.32H177.58v31.35Zm-1.23-23.31a8.88,8.88,0,0,1,3.44.61,6.51,6.51,0,0,1,2.24,1.43,6.23,6.23,0,0,1,1.23,1.95,8.27,8.27,0,0,1,.57,1.91,11.46,11.46,0,0,1,.11,1.56,11.83,11.83,0,0,1-.26,2.5,11.12,11.12,0,0,1-.92,2.48,4.8,4.8,0,0,1-2.13,2.07,7.7,7.7,0,0,1-3.58.76h-3.78V348.28Zm18.85,17.78a9.53,9.53,0,0,0,2.68,3.31,13.05,13.05,0,0,0,3.6,1.87,18.37,18.37,0,0,0,3.54.9,21.71,21.71,0,0,0,2.81.2,23.07,23.07,0,0,0,5.22-.57,17.81,17.81,0,0,0,4.61-1.76,8.74,8.74,0,0,0,3.41-3.36,10.12,10.12,0,0,0,1.25-5.12,8.54,8.54,0,0,0-.73-3.64,6.87,6.87,0,0,0-2.06-2.61,13.13,13.13,0,0,0-2.74-1.65,25.14,25.14,0,0,0-3.3-1.14c-.61-.18-1.47-.4-2.57-.66s-1.94-.47-2.54-.64-1.25-.37-1.94-.63a4.51,4.51,0,0,1-1.51-.88,1.74,1.74,0,0,1-.53-1.14,1.66,1.66,0,0,1,1.08-1.65,6,6,0,0,1,2.39-.46,4.79,4.79,0,0,1,2.86.79,2.45,2.45,0,0,1,1.14,2.5H235a11,11,0,0,0-1.16-4.8,8,8,0,0,0-2.94-3.19,14.65,14.65,0,0,0-4.09-1.69,20.7,20.7,0,0,0-4.9-.55,14.93,14.93,0,0,0-9,2.64,8.89,8.89,0,0,0-3.67,7.73,7.23,7.23,0,0,0,3.86,6.63,33,33,0,0,0,6.77,2.45,40.33,40.33,0,0,1,5.55,1.85,1.9,1.9,0,0,1,1.21,1.75,2.3,2.3,0,0,1-1.23,2.2,5.76,5.76,0,0,1-2.77.66c-2.52,0-4-.76-4.61-2.28a5.91,5.91,0,0,1-.35-2.07H208a11.18,11.18,0,0,0,1.16,5Z"/><path class="cls-3" d="M269.15,369.48a6.47,6.47,0,0,1-2.26-.89,8.78,8.78,0,0,1-2.06-1.85c-.66-.78-1.2-1.46-1.64-2s-1-1.38-1.58-2.4-1-1.66-1.24-1.95a24,24,0,0,0-4.83-5.62,9.27,9.27,0,0,0-6-2,7.84,7.84,0,0,0-6.33,2.65,10.2,10.2,0,0,0-2.24,6.79q0,4.83,3,7.33a11.36,11.36,0,0,0,7.83,2.41v-2.74a9.76,9.76,0,0,1-6.07-1.63,6,6,0,0,1-2.41-5.24,7.29,7.29,0,0,1,1.67-4.85,5.66,5.66,0,0,1,4.55-2,8.1,8.1,0,0,1,5.74,2.52,25.37,25.37,0,0,1,2.79,3.46l2.67,3.92a36.6,36.6,0,0,0,2.72,3.48,11.71,11.71,0,0,0,3.61,2.74,10.75,10.75,0,0,0,4.66,1.06V352.56h-2.53v16.92Zm-12.53-37.82q13.41,0,13.4,7.87t-13.4,7.87q-13.35,0-13.35-7.87t13.35-7.87Zm-12.2,15.44a12.81,12.81,0,0,0,3.66,1.85,20.83,20.83,0,0,0,4.19,1,40.37,40.37,0,0,0,4.4.23,39.67,39.67,0,0,0,4.37-.23,21.06,21.06,0,0,0,4.18-1,12.88,12.88,0,0,0,3.65-1.85,8.59,8.59,0,0,0,2.48-3.07,10.82,10.82,0,0,0,0-9,8.59,8.59,0,0,0-2.48-3.07,12.88,12.88,0,0,0-3.65-1.85,21.08,21.08,0,0,0-4.2-1,40.24,40.24,0,0,0-4.4-.23,39.67,39.67,0,0,0-4.37.23,20.81,20.81,0,0,0-4.17,1,12.81,12.81,0,0,0-3.66,1.85,8.7,8.7,0,0,0-2.48,3.07,10.82,10.82,0,0,0,0,9,8.7,8.7,0,0,0,2.48,3.07Zm4.63-28.67h22.63v-2.74H241.22v2.22a10.34,10.34,0,0,1,2.09.5,8.21,8.21,0,0,1,1.5.69,3.34,3.34,0,0,1,1,1,9.24,9.24,0,0,1,.65,1.17,6.43,6.43,0,0,1,.35,1.55c.08.69.14,1.24.17,1.65s.06,1.06.09,2h2v-8.05Zm7.79-10.78a8.49,8.49,0,0,1-5.74,2,8,8,0,0,1-5.55-2.07,6.75,6.75,0,0,1-2.28-5.24,7.15,7.15,0,0,1,2.2-5.7,9.2,9.2,0,0,1,11.39.13,7,7,0,0,1,2.29,5.53,6.71,6.71,0,0,1-2.31,5.37Zm13.49,1.09a9.84,9.84,0,0,0,2-6.46,9.45,9.45,0,0,0-1.26-4.94,9.22,9.22,0,0,0-3-3.2,16.1,16.1,0,0,0-4-1.76,22.73,22.73,0,0,0-3.87-.83q-1.57-.15-3-.15-8.79,0-12.49,2.52c-2.46,1.69-3.7,4.4-3.7,8.14a10,10,0,0,0,10.31,10.31,10.1,10.1,0,0,0,7.36-2.76,9.74,9.74,0,0,0,2.82-7.29,8.81,8.81,0,0,0-1.39-4.78,8.67,8.67,0,0,0-3.65-3.31v-.09a28.29,28.29,0,0,1,4.52.35,22.14,22.14,0,0,1,4.31,1.17,7.66,7.66,0,0,1,3.48,2.59,7,7,0,0,1,1.3,4.29,6.13,6.13,0,0,1-1.54,4.3,6.49,6.49,0,0,1-4.11,2.05v2.74a8.75,8.75,0,0,0,6-2.89Z"/></g></g></svg>